<?xml version="1.0" encoding="UTF-8"?>
<svg version="1.1" xmlns="http://www.w3.org/2000/svg" width="398" height="127">
<path d="M0 0 C131.34 0 262.68 0 398 0 C398 41.91 398 83.82 398 127 C266.66 127 135.32 127 0 127 C0 85.09 0 43.18 0 0 Z " fill="#FAFAFA" transform="translate(0,0)"/>
<path d="M0 0 C0.70874268 0.00080566 1.41748535 0.00161133 2.14770508 0.00244141 C9.97390842 0.09279486 17.19638073 1.12642294 24.4375 4.1875 C24.4375 4.8475 24.4375 5.5075 24.4375 6.1875 C25.0046875 6.28417969 25.571875 6.38085938 26.15625 6.48046875 C28.94561061 7.34497949 30.66047633 8.67916086 32.9375 10.5 C33.6903125 11.09425781 34.443125 11.68851563 35.21875 12.30078125 C37.43128497 14.18221504 39.51961346 16.00372464 41.4375 18.1875 C41.4375 19.1775 41.4375 20.1675 41.4375 21.1875 C42.0975 21.1875 42.7575 21.1875 43.4375 21.1875 C43.9325 23.6625 43.9325 23.6625 44.4375 26.1875 C45.0975 26.1875 45.7575 26.1875 46.4375 26.1875 C50.14089062 33.24708837 50.84749338 39.98205334 50.875 47.8125 C50.88466797 48.69446045 50.89433594 49.5764209 50.90429688 50.48510742 C50.80018678 58.68913634 48.77998813 65.57380817 44.4375 72.5625 C43.9425 73.37460938 43.4475 74.18671875 42.9375 75.0234375 C41.57543309 76.98850278 40.18979866 78.57079587 38.4375 80.1875 C37.7775 79.8575 37.1175 79.5275 36.4375 79.1875 C36.81003906 78.63320312 37.18257813 78.07890625 37.56640625 77.5078125 C38.27603516 76.42113281 38.27603516 76.42113281 39 75.3125 C39.71349609 74.23355469 39.71349609 74.23355469 40.44140625 73.1328125 C40.77011719 72.49085937 41.09882812 71.84890625 41.4375 71.1875 C40.54414203 68.82964682 40.54414203 68.82964682 37.375 68.0625 C36.405625 67.77375 35.43625 67.485 34.4375 67.1875 C35.4275 66.5275 36.4175 65.8675 37.4375 65.1875 C37.4375 63.8675 37.4375 62.5475 37.4375 61.1875 C37.9325 60.1975 37.9325 60.1975 38.4375 59.1875 C40.9375 60.5625 40.9375 60.5625 43.4375 62.1875 C43.4375 62.8475 43.4375 63.5075 43.4375 64.1875 C44.0975 64.1875 44.7575 64.1875 45.4375 64.1875 C47.16379975 58.12439842 47.83069795 52.47513056 48.0625 46.1875 C48.10117188 45.31738281 48.13984375 44.44726562 48.1796875 43.55078125 C48.27290887 41.42999514 48.35624136 39.30877815 48.4375 37.1875 C47.7775 37.1875 47.1175 37.1875 46.4375 37.1875 C43.17781891 27.77747722 43.17781891 27.77747722 42.4375 23.1875 C40.9525 22.6925 40.9525 22.6925 39.4375 22.1875 C38.4475 20.7025 38.4475 20.7025 37.4375 19.1875 C36.7775 20.5075 36.1175 21.8275 35.4375 23.1875 C34.4475 21.2075 34.4475 21.2075 33.4375 19.1875 C32.4475 20.6725 32.4475 20.6725 31.4375 22.1875 C31.9325 23.1775 31.9325 23.1775 32.4375 24.1875 C31.7775 24.1875 31.1175 24.1875 30.4375 24.1875 C30.9325 26.6625 30.9325 26.6625 31.4375 29.1875 C32.0975 29.1875 32.7575 29.1875 33.4375 29.1875 C38.61941825 38.87543412 39.15048882 50.45738865 36 61 C35.2515634 63.15853454 34.45873618 65.14502764 33.4375 67.1875 C32.7775 67.1875 32.1175 67.1875 31.4375 67.1875 C31.18871094 67.76886719 30.93992187 68.35023437 30.68359375 68.94921875 C29.26080185 71.50489197 27.68675809 73.06571677 25.5 75 C24.46552734 75.93779297 24.46552734 75.93779297 23.41015625 76.89453125 C22.75917969 77.32121094 22.10820313 77.74789062 21.4375 78.1875 C19.9525 77.6925 19.9525 77.6925 18.4375 77.1875 C18.7675 76.8575 19.0975 76.5275 19.4375 76.1875 C16.4675 75.8575 13.4975 75.5275 10.4375 75.1875 C10.4375 75.8475 10.4375 76.5075 10.4375 77.1875 C5.1575 77.1875 -0.1225 77.1875 -5.5625 77.1875 C-5.5625 76.5275 -5.5625 75.8675 -5.5625 75.1875 C-6.51511719 75.31769531 -7.46773437 75.44789062 -8.44921875 75.58203125 C-18.51374177 76.68881847 -18.51374177 76.68881847 -21.60546875 75.2109375 C-23.484592 73.32630363 -24.5625 71.89700463 -24.5625 69.1875 C-28.1925 69.1875 -31.8225 69.1875 -35.5625 69.1875 C-34.2425 67.2075 -32.9225 65.2275 -31.5625 63.1875 C-31.2325 63.8475 -30.9025 64.5075 -30.5625 65.1875 C-31.0575 66.1775 -31.0575 66.1775 -31.5625 67.1875 C-30.2425 67.1875 -28.9225 67.1875 -27.5625 67.1875 C-27.82804687 66.61644531 -28.09359375 66.04539062 -28.3671875 65.45703125 C-30.58820111 60.35842701 -31.83610274 55.85663097 -32.4375 50.3125 C-32.88256619 46.03423625 -32.88256619 46.03423625 -35.015625 42.47265625 C-36.81278816 41.21772413 -36.81278816 41.21772413 -39.5625 40.1875 C-39.2325 39.5275 -38.9025 38.8675 -38.5625 38.1875 C-35.5625 37.5 -35.5625 37.5 -32.5625 37.1875 C-32.2325 37.5175 -31.9025 37.8475 -31.5625 38.1875 C-30.9025 35.8775 -30.2425 33.5675 -29.5625 31.1875 C-30.18125 30.919375 -30.8 30.65125 -31.4375 30.375 C-33.5625 29.1875 -33.5625 29.1875 -35.5625 26.1875 C-34.2425 25.8575 -32.9225 25.5275 -31.5625 25.1875 C-31.8925 24.1975 -32.2225 23.2075 -32.5625 22.1875 C-31.44875 22.3525 -30.335 22.5175 -29.1875 22.6875 C-23.60084868 23.4580726 -22.18828559 22.49163257 -17.5625 19.1875 C-17.02625 18.61 -16.49 18.0325 -15.9375 17.4375 C-14.5625 16.1875 -14.5625 16.1875 -10.5625 16.1875 C-11.5525 12.8875 -12.5425 9.5875 -13.5625 6.1875 C-13.8925 6.1875 -14.2225 6.1875 -14.5625 6.1875 C-14.995625 7.1465625 -14.995625 7.1465625 -15.4375 8.125 C-16.5625 10.1875 -16.5625 10.1875 -18.5625 11.1875 C-18.5625 12.1775 -18.5625 13.1675 -18.5625 14.1875 C-20.2125 13.5275 -21.8625 12.8675 -23.5625 12.1875 C-24.5525 13.6725 -24.5525 13.6725 -25.5625 15.1875 C-23.5825 15.8475 -21.6025 16.5075 -19.5625 17.1875 C-21.5625 19.1875 -21.5625 19.1875 -23.5625 20.1875 C-23.8925 20.8475 -24.2225 21.5075 -24.5625 22.1875 C-25.8825 19.8775 -27.2025 17.5675 -28.5625 15.1875 C-29.52605244 16.26619393 -30.48311417 17.35068743 -31.4375 18.4375 C-31.97117187 19.04078125 -32.50484375 19.6440625 -33.0546875 20.265625 C-34.5422487 22.16168746 -35.56572436 24.00040005 -36.5625 26.1875 C-37.2225 26.1875 -37.8825 26.1875 -38.5625 26.1875 C-38.70558594 26.75984375 -38.84867188 27.3321875 -38.99609375 27.921875 C-39.35838136 29.37102545 -39.72514111 30.81906985 -40.09765625 32.265625 C-41.33910016 37.37853474 -41.75372548 41.92879935 -41.5625 47.1875 C-38.0975 46.6925 -38.0975 46.6925 -34.5625 46.1875 C-35.5525 46.6825 -35.5525 46.6825 -36.5625 47.1875 C-36.5625 47.8475 -36.5625 48.5075 -36.5625 49.1875 C-35.9025 49.1875 -35.2425 49.1875 -34.5625 49.1875 C-34.5625 49.8475 -34.5625 50.5075 -34.5625 51.1875 C-35.5525 51.6825 -35.5525 51.6825 -36.5625 52.1875 C-35.5725 52.8475 -34.5825 53.5075 -33.5625 54.1875 C-36.2025 54.1875 -38.8425 54.1875 -41.5625 54.1875 C-41.33617969 61.20342965 -39.72298222 65.24486452 -35.7421875 71.0234375 C-35.15824219 72.09464844 -35.15824219 72.09464844 -34.5625 73.1875 C-34.8925 74.1775 -35.2225 75.1675 -35.5625 76.1875 C-36.2225 74.8675 -36.8825 73.5475 -37.5625 72.1875 C-38.2225 72.1875 -38.8825 72.1875 -39.5625 72.1875 C-44.5820773 61.08766091 -46.9626251 51.4116691 -45.5625 39.1875 C-44.6015625 36.96875 -44.6015625 36.96875 -43.5625 35.1875 C-43.1470535 33.78216244 -42.77049564 32.36462415 -42.4375 30.9375 C-42.14875 29.7 -41.86 28.4625 -41.5625 27.1875 C-40.9025 27.1875 -40.2425 27.1875 -39.5625 27.1875 C-39.2325 25.5375 -38.9025 23.8875 -38.5625 22.1875 C-37.9025 22.1875 -37.2425 22.1875 -36.5625 22.1875 C-36.5625 21.1975 -36.5625 20.2075 -36.5625 19.1875 C-35.9025 19.1875 -35.2425 19.1875 -34.5625 19.1875 C-34.48 18.61 -34.3975 18.0325 -34.3125 17.4375 C-33.3391189 14.5173567 -31.88636725 13.16962207 -29.5625 11.1875 C-28.5725 10.8575 -27.5825 10.5275 -26.5625 10.1875 C-26.2325 9.5275 -25.9025 8.8675 -25.5625 8.1875 C-24.5725 8.1875 -23.5825 8.1875 -22.5625 8.1875 C-22.5625 7.5275 -22.5625 6.8675 -22.5625 6.1875 C-20.81447854 5.37075204 -19.06399811 4.55926549 -17.3125 3.75 C-16.33796875 3.29753906 -15.3634375 2.84507813 -14.359375 2.37890625 C-9.50103883 0.30936361 -5.25831808 -0.00617391 0 0 Z " fill="#E5BAB2" transform="translate(50.5625,14.8125)"/>
<path d="M0 0 C1.2065625 0.0309375 1.2065625 0.0309375 2.4375 0.0625 C2.1075 0.7225 1.7775 1.3825 1.4375 2.0625 C0.4475 1.7325 -0.5425 1.4025 -1.5625 1.0625 C-1.0675 2.155625 -0.5725 3.24875 -0.0625 4.375 C1.4375 8.0625 1.4375 8.0625 1.4375 11.0625 C0.73625 11.289375 0.035 11.51625 -0.6875 11.75 C-4.17898231 13.34393758 -6.64829765 15.58232778 -9.5625 18.0625 C-11.5625 19.5 -11.5625 19.5 -13.5625 20.0625 C-16.8125 19.1875 -16.8125 19.1875 -19.5625 18.0625 C-19.2325 19.0525 -18.9025 20.0425 -18.5625 21.0625 C-19.8825 21.3925 -21.2025 21.7225 -22.5625 22.0625 C-20.0875 24.0425 -20.0875 24.0425 -17.5625 26.0625 C-18.2225 29.0325 -18.8825 32.0025 -19.5625 35.0625 C-20.5525 34.4025 -21.5425 33.7425 -22.5625 33.0625 C-23.8825 33.7225 -25.2025 34.3825 -26.5625 35.0625 C-25.61375 35.454375 -24.665 35.84625 -23.6875 36.25 C-21.07594167 37.95026514 -20.60420596 38.89788284 -19.82421875 41.9765625 C-19.52156932 44.2661712 -19.24604665 46.55950964 -18.99609375 48.85546875 C-18.46889524 52.75483787 -17.2464854 55.54143961 -15.5625 59.0625 C-15.5625 60.0525 -15.5625 61.0425 -15.5625 62.0625 C-16.8825 62.0625 -18.2025 62.0625 -19.5625 62.0625 C-19.5625 61.0725 -19.5625 60.0825 -19.5625 59.0625 C-20.5525 60.3825 -21.5425 61.7025 -22.5625 63.0625 C-20.7371875 62.9078125 -20.7371875 62.9078125 -18.875 62.75 C-15.20801128 62.73052926 -14.70796771 62.94233103 -11.6875 65.4375 C-10.98625 66.30375 -10.285 67.17 -9.5625 68.0625 C-7.64843338 70.41891524 -7.64843338 70.41891524 -4.3046875 70.2578125 C-3.02851562 70.23460938 -1.75234375 70.21140625 -0.4375 70.1875 C1.48449219 70.16042969 1.48449219 70.16042969 3.4453125 70.1328125 C4.92644531 70.09800781 4.92644531 70.09800781 6.4375 70.0625 C6.4375 70.7225 6.4375 71.3825 6.4375 72.0625 C11.7175 72.0625 16.9975 72.0625 22.4375 72.0625 C22.4375 71.4025 22.4375 70.7425 22.4375 70.0625 C26.0675 70.0625 29.6975 70.0625 33.4375 70.0625 C32.7775 70.7225 32.1175 71.3825 31.4375 72.0625 C34.37190199 70.71513662 36.68823427 69.17683035 39.125 67.0625 C40.02798828 66.2890625 40.02798828 66.2890625 40.94921875 65.5 C42.55133116 64.11204056 42.55133116 64.11204056 43.4375 62.0625 C44.0975 62.0625 44.7575 62.0625 45.4375 62.0625 C49.46584705 49.1861764 49.91325394 36.8770098 45.4375 24.0625 C44.7775 24.0625 44.1175 24.0625 43.4375 24.0625 C42.60659683 20.73888732 42.10362427 18.28603302 43.4375 15.0625 C46.4375 13.0625 46.4375 13.0625 48.375 13.1875 C51.82197609 14.64985349 53.80364115 16.62089182 55.3203125 20.0703125 C55.84458447 21.49042784 56.34711288 22.91882034 56.82421875 24.35546875 C57.30342828 26.07055616 57.30342828 26.07055616 58.4375 27.0625 C58.47813832 28.72867115 58.480221 30.39638095 58.4375 32.0625 C59.0975 32.0625 59.7575 32.0625 60.4375 32.0625 C60.49171223 35.10440863 60.53127548 38.14533999 60.5625 41.1875 C60.57925781 42.0434375 60.59601563 42.899375 60.61328125 43.78125 C60.65694053 49.45695657 60.01150577 53.91448845 57.4375 59.0625 C56.7775 59.0625 56.1175 59.0625 55.4375 59.0625 C55.4375 58.4025 55.4375 57.7425 55.4375 57.0625 C53.7875 56.4025 52.1375 55.7425 50.4375 55.0625 C50.7675 55.3925 51.0975 55.7225 51.4375 56.0625 C49.9525 56.5575 49.9525 56.5575 48.4375 57.0625 C49.4275 59.0425 49.4275 59.0425 50.4375 61.0625 C50.1075 61.3925 49.7775 61.7225 49.4375 62.0625 C51.0875 62.3925 52.7375 62.7225 54.4375 63.0625 C53.74719811 66.58886144 52.33369849 69.4133038 50.625 72.5625 C50.12355469 73.5009375 49.62210937 74.439375 49.10546875 75.40625 C47.43456988 78.06716623 45.85022086 80.05268931 43.4375 82.0625 C42.4475 82.0625 41.4575 82.0625 40.4375 82.0625 C40.4375 82.7225 40.4375 83.3825 40.4375 84.0625 C26.26301396 91.83187571 12.27033254 91.89357813 -3.19140625 87.81640625 C-5.5625 87.0625 -5.5625 87.0625 -7.5625 86.0625 C-7.5625 85.4025 -7.5625 84.7425 -7.5625 84.0625 C-8.30113281 83.96710938 -9.03976563 83.87171875 -9.80078125 83.7734375 C-12.94867476 82.96308867 -14.37174937 81.86794642 -16.75 79.6875 C-17.42417969 79.08164063 -18.09835938 78.47578125 -18.79296875 77.8515625 C-21.29708637 75.31980561 -22.49267987 73.33640974 -23.375 69.875 C-24.40873141 66.55617811 -25.25083472 64.92065297 -27.1875 62.1875 C-30.08703297 57.8509551 -30.09161385 54.14199291 -29.5625 49.0625 C-27.23035852 47.85621992 -25.06607861 46.8970262 -22.5625 46.0625 C-22.5625 45.4025 -22.5625 44.7425 -22.5625 44.0625 C-23.2225 44.0625 -23.8825 44.0625 -24.5625 44.0625 C-24.8925 43.4025 -25.2225 42.7425 -25.5625 42.0625 C-26.201875 42.248125 -26.84125 42.43375 -27.5 42.625 C-28.180625 42.769375 -28.86125 42.91375 -29.5625 43.0625 C-30.5625 42.0625 -30.5625 42.0625 -30.75 38.5625 C-30.67194928 32.36304261 -29.49935994 26.54134796 -26.5625 21.0625 C-25.9025 21.0625 -25.2425 21.0625 -24.5625 21.0625 C-24.35625 20.381875 -24.15 19.70125 -23.9375 19 C-22.10841134 15.09240149 -19.45970966 12.22392061 -16.5625 9.0625 C-16.088125 9.701875 -15.61375 10.34125 -15.125 11 C-13.72511274 12.94543306 -13.72511274 12.94543306 -12.5625 14.0625 C-10.50853274 13.65320014 -10.50853274 13.65320014 -8.5625 13.0625 C-10.5425 12.0725 -12.5225 11.0825 -14.5625 10.0625 C-12.8125 8 -12.8125 8 -10.5625 6.0625 C-8.3125 6.3125 -8.3125 6.3125 -6.5625 7.0625 C-6.8925 6.4025 -7.2225 5.7425 -7.5625 5.0625 C-6.5725 5.0625 -5.5825 5.0625 -4.5625 5.0625 C-4.418125 4.423125 -4.27375 3.78375 -4.125 3.125 C-3.30589691 0.12162199 -3.19313651 0.07788138 0 0 Z " fill="#F6E5E2" transform="translate(38.5625,19.9375)"/>
<path d="M0 0 C1.80791016 0.13535156 1.80791016 0.13535156 3.65234375 0.2734375 C6.51995042 0.56906705 9.25269255 0.99585905 12.0625 1.625 C12.0625 1.955 12.0625 2.285 12.0625 2.625 C5.6275 3.12 5.6275 3.12 -0.9375 3.625 C-0.2775 5.275 0.3825 6.925 1.0625 8.625 C1.5575 10.11 1.5575 10.11 2.0625 11.625 C5.18540635 11.13921457 8.05830359 10.6263988 11.0625 9.625 C11.0625 10.615 11.0625 11.605 11.0625 12.625 C11.7225 13.285 12.3825 13.945 13.0625 14.625 C10.7525 14.295 8.4425 13.965 6.0625 13.625 C6.5575 16.1 6.5575 16.1 7.0625 18.625 C6.0725 18.625 5.0825 18.625 4.0625 18.625 C4.0625 19.945 4.0625 21.265 4.0625 22.625 C3.0725 22.295 2.0825 21.965 1.0625 21.625 C1.3925 19.645 1.7225 17.665 2.0625 15.625 C1.7325 16.285 1.4025 16.945 1.0625 17.625 C0.43601563 17.52960937 -0.19046875 17.43421875 -0.8359375 17.3359375 C-1.65320312 17.22507812 -2.47046875 17.11421875 -3.3125 17 C-4.12460937 16.88398437 -4.93671875 16.76796875 -5.7734375 16.6484375 C-6.48757812 16.64070313 -7.20171875 16.63296875 -7.9375 16.625 C-8.5975 17.285 -9.2575 17.945 -9.9375 18.625 C-9.2775 19.945 -8.6175 21.265 -7.9375 22.625 C-4.81552522 21.3160428 -4.81552522 21.3160428 -2.9375 18.625 C-1.9475 18.955 -0.9575 19.285 0.0625 19.625 C-0.4325 21.11 -0.4325 21.11 -0.9375 22.625 C-1.15929785 24.51712737 -1.34364015 26.41384472 -1.5 28.3125 C-1.58378906 29.30636719 -1.66757812 30.30023438 -1.75390625 31.32421875 C-1.84478516 32.46310547 -1.84478516 32.46310547 -1.9375 33.625 C-2.68773437 33.30917969 -3.43796875 32.99335937 -4.2109375 32.66796875 C-8.58463378 30.99493593 -12.44820567 30.12856856 -16.9375 31.625 C-16.9375 34.595 -16.9375 37.565 -16.9375 40.625 C-14.57964682 39.73164203 -14.57964682 39.73164203 -13.8125 36.5625 C-13.52375 35.593125 -13.235 34.62375 -12.9375 33.625 C-11.6175 33.625 -10.2975 33.625 -8.9375 33.625 C-8.2775 35.935 -7.6175 38.245 -6.9375 40.625 C-6.2775 40.625 -5.6175 40.625 -4.9375 40.625 C-4.9375 42.605 -4.9375 44.585 -4.9375 46.625 C-5.9275 46.625 -6.9175 46.625 -7.9375 46.625 C-8.2675 47.615 -8.5975 48.605 -8.9375 49.625 C-6.6275 49.625 -4.3175 49.625 -1.9375 49.625 C-1.9375 50.285 -1.9375 50.945 -1.9375 51.625 C-5.4025 52.12 -5.4025 52.12 -8.9375 52.625 C-7.6175 53.285 -6.2975 53.945 -4.9375 54.625 C-7.46225462 55.88737731 -9.24950466 55.72356404 -12.0625 55.6875 C-12.97257812 55.67847656 -13.88265625 55.66945312 -14.8203125 55.66015625 C-15.51898438 55.64855469 -16.21765625 55.63695312 -16.9375 55.625 C-16.6075 58.265 -16.2775 60.905 -15.9375 63.625 C-14.9475 63.625 -13.9575 63.625 -12.9375 63.625 C-12.2775 61.975 -11.6175 60.325 -10.9375 58.625 C-8.0990855 60.34298773 -6.25597379 61.69518456 -5.16015625 64.89453125 C-4.67716721 67.13320309 -4.26201767 69.35821986 -3.9375 71.625 C-4.79214844 71.61339844 -5.64679687 71.60179688 -6.52734375 71.58984375 C-7.63207031 71.58082031 -8.73679688 71.57179688 -9.875 71.5625 C-10.97714844 71.55089844 -12.07929687 71.53929688 -13.21484375 71.52734375 C-15.85197634 71.31237429 -15.85197634 71.31237429 -16.9375 72.625 C-12.3175 72.625 -7.6975 72.625 -2.9375 72.625 C-2.6075 73.615 -2.2775 74.605 -1.9375 75.625 C4.4975 75.13 4.4975 75.13 11.0625 74.625 C11.0625 75.285 11.0625 75.945 11.0625 76.625 C5.7825 76.625 0.5025 76.625 -4.9375 76.625 C-4.9375 75.965 -4.9375 75.305 -4.9375 74.625 C-5.89011719 74.75519531 -6.84273437 74.88539062 -7.82421875 75.01953125 C-17.88874177 76.12631847 -17.88874177 76.12631847 -20.98046875 74.6484375 C-22.859592 72.76380363 -23.9375 71.33450463 -23.9375 68.625 C-27.5675 68.625 -31.1975 68.625 -34.9375 68.625 C-33.6175 66.645 -32.2975 64.665 -30.9375 62.625 C-30.6075 63.285 -30.2775 63.945 -29.9375 64.625 C-30.4325 65.615 -30.4325 65.615 -30.9375 66.625 C-29.6175 66.625 -28.2975 66.625 -26.9375 66.625 C-27.20304687 66.05394531 -27.46859375 65.48289062 -27.7421875 64.89453125 C-29.96320111 59.79592701 -31.21110274 55.29413097 -31.8125 49.75 C-32.25756619 45.47173625 -32.25756619 45.47173625 -34.390625 41.91015625 C-36.18778816 40.65522413 -36.18778816 40.65522413 -38.9375 39.625 C-38.6075 38.965 -38.2775 38.305 -37.9375 37.625 C-34.9375 36.9375 -34.9375 36.9375 -31.9375 36.625 C-31.6075 36.955 -31.2775 37.285 -30.9375 37.625 C-30.2775 35.315 -29.6175 33.005 -28.9375 30.625 C-29.55625 30.356875 -30.175 30.08875 -30.8125 29.8125 C-32.9375 28.625 -32.9375 28.625 -34.9375 25.625 C-33.6175 25.295 -32.2975 24.965 -30.9375 24.625 C-31.2675 23.635 -31.5975 22.645 -31.9375 21.625 C-30.82375 21.79 -29.71 21.955 -28.5625 22.125 C-22.97584868 22.8955726 -21.56328559 21.92913257 -16.9375 18.625 C-16.40125 18.0475 -15.865 17.47 -15.3125 16.875 C-13.9375 15.625 -13.9375 15.625 -9.9375 15.625 C-10.9275 12.325 -11.9175 9.025 -12.9375 5.625 C-13.2675 5.625 -13.5975 5.625 -13.9375 5.625 C-14.370625 6.5840625 -14.370625 6.5840625 -14.8125 7.5625 C-15.9375 9.625 -15.9375 9.625 -17.9375 10.625 C-17.9375 11.615 -17.9375 12.605 -17.9375 13.625 C-19.5875 12.965 -21.2375 12.305 -22.9375 11.625 C-23.9275 13.11 -23.9275 13.11 -24.9375 14.625 C-22.9575 15.285 -20.9775 15.945 -18.9375 16.625 C-20.9375 18.625 -20.9375 18.625 -22.9375 19.625 C-23.2675 20.285 -23.5975 20.945 -23.9375 21.625 C-25.2575 19.315 -26.5775 17.005 -27.9375 14.625 C-28.90105244 15.70369393 -29.85811417 16.78818743 -30.8125 17.875 C-31.34617187 18.47828125 -31.87984375 19.0815625 -32.4296875 19.703125 C-33.9172487 21.59918746 -34.94072436 23.43790005 -35.9375 25.625 C-36.5975 25.625 -37.2575 25.625 -37.9375 25.625 C-38.08058594 26.19734375 -38.22367188 26.7696875 -38.37109375 27.359375 C-38.73338136 28.80852545 -39.10014111 30.25656985 -39.47265625 31.703125 C-40.71410016 36.81603474 -41.12872548 41.36629935 -40.9375 46.625 C-37.4725 46.13 -37.4725 46.13 -33.9375 45.625 C-34.9275 46.12 -34.9275 46.12 -35.9375 46.625 C-35.9375 47.285 -35.9375 47.945 -35.9375 48.625 C-35.2775 48.625 -34.6175 48.625 -33.9375 48.625 C-33.9375 49.285 -33.9375 49.945 -33.9375 50.625 C-34.9275 51.12 -34.9275 51.12 -35.9375 51.625 C-34.9475 52.285 -33.9575 52.945 -32.9375 53.625 C-35.5775 53.625 -38.2175 53.625 -40.9375 53.625 C-40.71117969 60.64092965 -39.09798222 64.68236452 -35.1171875 70.4609375 C-34.53324219 71.53214844 -34.53324219 71.53214844 -33.9375 72.625 C-34.2675 73.615 -34.5975 74.605 -34.9375 75.625 C-35.5975 74.305 -36.2575 72.985 -36.9375 71.625 C-37.5975 71.625 -38.2575 71.625 -38.9375 71.625 C-43.9570773 60.52516091 -46.3376251 50.8491691 -44.9375 38.625 C-43.9765625 36.40625 -43.9765625 36.40625 -42.9375 34.625 C-42.5220535 33.21966244 -42.14549564 31.80212415 -41.8125 30.375 C-41.52375 29.1375 -41.235 27.9 -40.9375 26.625 C-40.2775 26.625 -39.6175 26.625 -38.9375 26.625 C-38.6075 24.975 -38.2775 23.325 -37.9375 21.625 C-37.2775 21.625 -36.6175 21.625 -35.9375 21.625 C-35.9375 20.635 -35.9375 19.645 -35.9375 18.625 C-35.2775 18.625 -34.6175 18.625 -33.9375 18.625 C-33.855 18.0475 -33.7725 17.47 -33.6875 16.875 C-32.7141189 13.9548567 -31.26136725 12.60712207 -28.9375 10.625 C-27.9475 10.295 -26.9575 9.965 -25.9375 9.625 C-25.6075 8.965 -25.2775 8.305 -24.9375 7.625 C-23.9475 7.625 -22.9575 7.625 -21.9375 7.625 C-21.9375 6.965 -21.9375 6.305 -21.9375 5.625 C-20.18947854 4.80825204 -18.43899811 3.99676549 -16.6875 3.1875 C-15.71296875 2.73503906 -14.7384375 2.28257813 -13.734375 1.81640625 C-8.80284541 -0.28431515 -5.39193834 -0.42583078 0 0 Z " fill="#E9BCB3" transform="translate(49.9375,15.375)"/>
<path d="M0 0 C1.68454312 5.05362937 0.46885084 9.5157106 -0.4375 14.625 C-0.57220703 15.41390625 -0.70691406 16.2028125 -0.84570312 17.015625 C-1.87820158 22.87820158 -1.87820158 22.87820158 -3 24 C-3 25.32 -3 26.64 -3 28 C-1.05396726 28.59070014 -1.05396726 28.59070014 1 29 C1.33 28.67 1.66 28.34 2 28 C3.65 28.33 5.3 28.66 7 29 C7 33.62 7 38.24 7 43 C5.02 43.495 5.02 43.495 3 44 C2.34 43.01 1.68 42.02 1 41 C-0.98 45.95 -0.98 45.95 -3 51 C-3.66 50.01 -4.32 49.02 -5 48 C-4.67 49.65 -4.34 51.3 -4 53 C-3.01 53.33 -2.02 53.66 -1 54 C-0.67 52.68 -0.34 51.36 0 50 C1.65 50 3.3 50 5 50 C5 51.32 5 52.64 5 54 C7.02694516 52.32345759 7.91889146 51.43751818 8.40625 48.80859375 C8.4688528 47.22526448 8.53135247 45.64193112 8.59375 44.05859375 C8.7278125 43.37925781 8.861875 42.69992188 9 42 C12.67346771 39.55102153 14.66356399 39.68462284 19 40 C19.66 40.66 20.32 41.32 21 42 C19.6875 43.5 19.6875 43.5 18 45 C17.01 45 16.02 45 15 45 C15 45.66 15 46.32 15 47 C14.34 47 13.68 47 13 47 C13 45.68 13 44.36 13 43 C11.93846091 45.12307819 11.70893336 46.65619446 11.4375 49 C11.35371094 49.70125 11.26992188 50.4025 11.18359375 51.125 C10.96751646 53.01775229 10.96751646 53.01775229 11 55 C12.32 55 13.64 55 15 55 C15 52.69 15 50.38 15 48 C18.875 48.875 18.875 48.875 20 50 C20.66 50 21.32 50 22 50 C22 48.68 22 47.36 22 46 C22.99 46.33 23.98 46.66 25 47 C25 47.66 25 48.32 25 49 C25.99 49 26.98 49 28 49 C27.67 48.01 27.34 47.02 27 46 C28.32 46 29.64 46 31 46 C29.66749209 49.5875213 28.169283 52.8364623 26 56 C25.34 56 24.68 56 24 56 C23.505 56.99 23.505 56.99 23 58 C18.38 58 13.76 58 9 58 C9 58.66 9 59.32 9 60 C6.35541621 61.32229189 4.32238699 61.09677194 1.375 61.0625 C0.37210938 61.05347656 -0.63078125 61.04445312 -1.6640625 61.03515625 C-2.43492188 61.02355469 -3.20578125 61.01195312 -4 61 C-4.33 60.34 -4.66 59.68 -5 59 C-8.27555608 58.52998967 -8.27555608 58.52998967 -12.0625 58.375 C-13.35285156 58.30023438 -14.64320312 58.22546875 -15.97265625 58.1484375 C-16.97167969 58.09945312 -17.97070312 58.05046875 -19 58 C-18.67 57.34 -18.34 56.68 -18 56 C-9.42857143 55.85714286 -9.42857143 55.85714286 -6 57 C-6.34444881 54.52733235 -6.34444881 54.52733235 -7 52 C-7.66 51.67 -8.32 51.34 -9 51 C-8.67 50.01 -8.34 49.02 -8 48 C-8.99 47.67 -9.98 47.34 -11 47 C-11.66 46.34 -12.32 45.68 -13 45 C-13.66 46.32 -14.32 47.64 -15 49 C-15.99 49 -16.98 49 -18 49 C-18.33 49.66 -18.66 50.32 -19 51 C-19 47.7 -19 44.4 -19 41 C-16.24921116 40.08307039 -14.64051087 39.89113917 -11.8125 39.9375 C-10.554375 39.958125 -9.29625 39.97875 -8 40 C-8.763125 39.855625 -9.52625 39.71125 -10.3125 39.5625 C-13 39 -13 39 -16 38 C-15 37 -15 37 -12.49609375 36.90234375 C-11.48675781 36.91394531 -10.47742188 36.92554688 -9.4375 36.9375 C-8.42558594 36.94652344 -7.41367187 36.95554688 -6.37109375 36.96484375 C-5.19740234 36.98224609 -5.19740234 36.98224609 -4 37 C-4 36.34 -4 35.68 -4 35 C-6.31 35 -8.62 35 -11 35 C-10.67 33.68 -10.34 32.36 -10 31 C-9.34 31 -8.68 31 -8 31 C-7.67 29.35 -7.34 27.7 -7 26 C-7.66 26 -8.32 26 -9 26 C-9.66 23.69 -10.32 21.38 -11 19 C-12.96756452 19.03122943 -12.96756452 19.03122943 -15 20 C-16.3045656 22.99615946 -16.3045656 22.99615946 -17 26 C-17.66 26 -18.32 26 -19 26 C-19 23.03 -19 20.06 -19 17 C-18.34 17 -17.68 17 -17 17 C-16.67 16.34 -16.34 15.68 -16 15 C-14.5608866 15.28359887 -13.12374482 15.57721399 -11.6875 15.875 C-10.88699219 16.03742187 -10.08648437 16.19984375 -9.26171875 16.3671875 C-7 17 -7 17 -4 19 C-4.01740234 17.73542969 -4.01740234 17.73542969 -4.03515625 16.4453125 C-4.04417969 15.34960938 -4.05320312 14.25390625 -4.0625 13.125 C-4.07410156 12.03445312 -4.08570313 10.94390625 -4.09765625 9.8203125 C-4 7 -4 7 -3 5 C-3.66 4.67 -4.32 4.34 -5 4 C-5.66 5.32 -6.32 6.64 -7 8 C-7.99 8 -8.98 8 -10 8 C-12.1875 5.5 -12.1875 5.5 -14 3 C-10.36129488 0.67122873 -7.23444833 0.8402095 -3 1 C-1.7763932 1.0745356 -1.7763932 1.0745356 0 0 Z " fill="#EECBC4" transform="translate(52,30)"/>
<path d="M0 0 C1.32 0.66 2.64 1.32 4 2 C3.67 2.66 3.34 3.32 3 4 C2.34 3.67 1.68 3.34 1 3 C1.15919922 4.01602295 1.31839844 5.0320459 1.48242188 6.07885742 C1.9557463 9.66473651 2.18385569 13.12562581 2.28125 16.73828125 C2.31863281 17.96998047 2.35601562 19.20167969 2.39453125 20.47070312 C2.46537954 23.05141764 2.535684 25.63214713 2.60546875 28.21289062 C2.64285156 29.43814453 2.68023437 30.66339844 2.71875 31.92578125 C2.74904297 33.04380127 2.77933594 34.16182129 2.81054688 35.3137207 C2.82549768 37.97031306 2.82549768 37.97031306 4 40 C4.66 40 5.32 40 6 40 C6 39.34 6 38.68 6 38 C8.475 37.505 8.475 37.505 11 37 C13.39097119 28.55447272 11.74819472 21.11643002 9 13 C8.65280216 11.67020958 8.3146142 10.33787398 8 9 C8.66 9 9.32 9 10 9 C15.18191825 18.68793412 15.71298882 30.26988865 12.5625 40.8125 C11.8140634 42.97103454 11.02123618 44.95752764 10 47 C9.34 47 8.68 47 8 47 C7.75121094 47.58136719 7.50242188 48.16273437 7.24609375 48.76171875 C5.82330185 51.31739197 4.24925809 52.87821677 2.0625 54.8125 C1.37285156 55.43769531 0.68320313 56.06289062 -0.02734375 56.70703125 C-1.00380859 57.34705078 -1.00380859 57.34705078 -2 58 C-3.485 57.505 -3.485 57.505 -5 57 C-4.67 56.67 -4.34 56.34 -4 56 C-6.97 55.67 -9.94 55.34 -13 55 C-13 54.34 -13 53.68 -13 53 C-8.38 53 -3.76 53 1 53 C1.33 51.68 1.66 50.36 2 49 C2 49.66 2 50.32 2 51 C4.56995074 49.71502463 4.90434463 48.50087627 6.125 45.9375 C6.47820312 45.20402344 6.83140625 44.47054687 7.1953125 43.71484375 C7.46085937 43.14894531 7.72640625 42.58304688 8 42 C7.34 42 6.68 42 6 42 C6 42.66 6 43.32 6 44 C3 44 3 44 1.3125 42.5 C0.879375 42.005 0.44625 41.51 0 41 C-0.33 43.31 -0.66 45.62 -1 48 C-1.66 47.67 -2.32 47.34 -3 47 C-3 46.01 -3 45.02 -3 44 C-3.99 44 -4.98 44 -6 44 C-6.33 45.98 -6.66 47.96 -7 50 C-9.475 50.495 -9.475 50.495 -12 51 C-12.495 49.515 -12.495 49.515 -13 48 C-12.34 48 -11.68 48 -11 48 C-11 44.7 -11 41.4 -11 38 C-10.34 38 -9.68 38 -9 38 C-9 39.32 -9 40.64 -9 42 C-8.34 42 -7.68 42 -7 42 C-7 41.34 -7 40.68 -7 40 C-6.01 40 -5.02 40 -4 40 C-3.67 38.68 -3.34 37.36 -3 36 C-7.65052872 35.73067479 -7.65052872 35.73067479 -12 37 C-12.43021613 39.02520515 -12.43021613 39.02520515 -12.5625 41.375 C-12.78753088 44.19477465 -13.09554568 46.28663703 -14 49 C-14.99 49 -15.98 49 -17 49 C-17 47.68 -17 46.36 -17 45 C-19.475 45.495 -19.475 45.495 -22 46 C-22.33 46.99 -22.66 47.98 -23 49 C-24.32 48.67 -25.64 48.34 -27 48 C-27 46.35 -27 44.7 -27 43 C-26.34 43.33 -25.68 43.66 -25 44 C-24.01 41.03 -23.02 38.06 -22 35 C-19 36 -19 36 -18 38 C-17.01 38 -16.02 38 -15 38 C-15.33 33.38 -15.66 28.76 -16 24 C-16.99 24.33 -17.98 24.66 -19 25 C-22 25 -22 25 -25 23 C-25 23.66 -25 24.32 -25 25 C-24.34 25.33 -23.68 25.66 -23 26 C-23.99 26.33 -24.98 26.66 -26 27 C-26.18309406 21.69027217 -25.81180536 18.03279267 -24 13 C-23.2600555 9.68024898 -22.62118462 6.34382357 -22 3 C-18.35224614 6.88309282 -17.41474367 9.71201818 -17 15 C-16.34 14.01 -15.68 13.02 -15 12 C-14.34 12 -13.68 12 -13 12 C-12.67 12.66 -12.34 13.32 -12 14 C-10.68 14 -9.36 14 -8 14 C-8 15.65 -8 17.3 -8 19 C-7.38125 18.34 -6.7625 17.68 -6.125 17 C-4 15 -4 15 -2 15 C-1.67 17.31 -1.34 19.62 -1 22 C-2.3921875 21.9071875 -2.3921875 21.9071875 -3.8125 21.8125 C-6.90810366 21.7139356 -6.90810366 21.7139356 -8.6875 23.1875 C-10.26379248 25.36428485 -11.61725111 27.69541852 -13 30 C-8.71 30 -4.42 30 0 30 C-1.06645115 28.70366379 -1.06645115 28.70366379 -3.5625 28.9375 C-4.366875 28.958125 -5.17125 28.97875 -6 29 C-6 28.34 -6 27.68 -6 27 C-6.66 27 -7.32 27 -8 27 C-7.67 26.01 -7.34 25.02 -7 24 C-7 24.66 -7 25.32 -7 26 C-6.34 26 -5.68 26 -5 26 C-4.67 25.01 -4.34 24.02 -4 23 C-4 24.65 -4 26.3 -4 28 C-3.34 28 -2.68 28 -2 28 C-2 27.34 -2 26.68 -2 26 C-1.34 26 -0.68 26 0 26 C0 21.38 0 16.76 0 12 C-0.66 12 -1.32 12 -2 12 C-1.34 8.04 -0.68 4.08 0 0 Z " fill="#E6B1A7" transform="translate(74,35)"/>
<path d="M0 0 C1.2065625 0.0309375 1.2065625 0.0309375 2.4375 0.0625 C2.1075 0.7225 1.7775 1.3825 1.4375 2.0625 C0.4475 1.7325 -0.5425 1.4025 -1.5625 1.0625 C-1.0675 2.155625 -0.5725 3.24875 -0.0625 4.375 C1.4375 8.0625 1.4375 8.0625 1.4375 11.0625 C0.73625 11.289375 0.035 11.51625 -0.6875 11.75 C-4.17898231 13.34393758 -6.64829765 15.58232778 -9.5625 18.0625 C-11.5625 19.5 -11.5625 19.5 -13.5625 20.0625 C-16.8125 19.1875 -16.8125 19.1875 -19.5625 18.0625 C-19.2325 19.0525 -18.9025 20.0425 -18.5625 21.0625 C-19.8825 21.3925 -21.2025 21.7225 -22.5625 22.0625 C-20.0875 24.0425 -20.0875 24.0425 -17.5625 26.0625 C-18.2225 29.0325 -18.8825 32.0025 -19.5625 35.0625 C-20.5525 34.4025 -21.5425 33.7425 -22.5625 33.0625 C-23.8825 33.7225 -25.2025 34.3825 -26.5625 35.0625 C-25.61375 35.454375 -24.665 35.84625 -23.6875 36.25 C-21.07594167 37.95026514 -20.60420596 38.89788284 -19.82421875 41.9765625 C-19.52156932 44.2661712 -19.24604665 46.55950964 -18.99609375 48.85546875 C-18.46889524 52.75483787 -17.2464854 55.54143961 -15.5625 59.0625 C-15.5625 60.0525 -15.5625 61.0425 -15.5625 62.0625 C-16.8825 62.0625 -18.2025 62.0625 -19.5625 62.0625 C-19.5625 61.0725 -19.5625 60.0825 -19.5625 59.0625 C-20.5525 60.3825 -21.5425 61.7025 -22.5625 63.0625 C-20.7371875 62.9078125 -20.7371875 62.9078125 -18.875 62.75 C-15.4349072 62.75602468 -14.81329954 62.84932039 -12.0625 65.1875 C-11.2375 66.13625 -10.4125 67.085 -9.5625 68.0625 C-8.23343547 69.15623721 -6.87729782 70.21766075 -5.5 71.25 C-4.52353516 71.98283203 -4.52353516 71.98283203 -3.52734375 72.73046875 C-1.60122654 74.03624603 0.33372408 75.07386588 2.4375 76.0625 C1.4475 76.5575 1.4475 76.5575 0.4375 77.0625 C-0.02773063 78.95783342 -0.02773063 78.95783342 -0.1875 81.125 C-0.31125 82.424375 -0.435 83.72375 -0.5625 85.0625 C-6.10096154 84.44711538 -6.10096154 84.44711538 -8.4375 82.5 C-8.80875 82.025625 -9.18 81.55125 -9.5625 81.0625 C-8.5625 78.0625 -8.5625 78.0625 -7.5625 77.0625 C-8.8825 77.0625 -10.2025 77.0625 -11.5625 77.0625 C-11.5625 77.7225 -11.5625 78.3825 -11.5625 79.0625 C-19.10815459 75.49606369 -23.10409077 70.92060379 -26.51953125 63.33203125 C-27.58251494 60.86284252 -27.58251494 60.86284252 -29.5625 58.0625 C-29.7578125 55.80078125 -29.7578125 55.80078125 -29.6875 53.375 C-29.66945313 52.56675781 -29.65140625 51.75851563 -29.6328125 50.92578125 C-29.60960937 50.31089844 -29.58640625 49.69601563 -29.5625 49.0625 C-27.23035852 47.85621992 -25.06607861 46.8970262 -22.5625 46.0625 C-22.5625 45.4025 -22.5625 44.7425 -22.5625 44.0625 C-23.2225 44.0625 -23.8825 44.0625 -24.5625 44.0625 C-24.8925 43.4025 -25.2225 42.7425 -25.5625 42.0625 C-26.201875 42.248125 -26.84125 42.43375 -27.5 42.625 C-28.180625 42.769375 -28.86125 42.91375 -29.5625 43.0625 C-30.5625 42.0625 -30.5625 42.0625 -30.75 38.5625 C-30.67194928 32.36304261 -29.49935994 26.54134796 -26.5625 21.0625 C-25.9025 21.0625 -25.2425 21.0625 -24.5625 21.0625 C-24.35625 20.381875 -24.15 19.70125 -23.9375 19 C-22.10841134 15.09240149 -19.45970966 12.22392061 -16.5625 9.0625 C-16.088125 9.701875 -15.61375 10.34125 -15.125 11 C-13.72511274 12.94543306 -13.72511274 12.94543306 -12.5625 14.0625 C-10.50853274 13.65320014 -10.50853274 13.65320014 -8.5625 13.0625 C-10.5425 12.0725 -12.5225 11.0825 -14.5625 10.0625 C-12.8125 8 -12.8125 8 -10.5625 6.0625 C-8.3125 6.3125 -8.3125 6.3125 -6.5625 7.0625 C-6.8925 6.4025 -7.2225 5.7425 -7.5625 5.0625 C-6.5725 5.0625 -5.5825 5.0625 -4.5625 5.0625 C-4.418125 4.423125 -4.27375 3.78375 -4.125 3.125 C-3.30589691 0.12162199 -3.19313651 0.07788138 0 0 Z " fill="#FCF8F7" transform="translate(38.5625,19.9375)"/>
<path d="M0 0 C16.70842825 -0.55353075 16.70842825 -0.55353075 25 3 C24.67 3.99 24.34 4.98 24 6 C24 5.34 24 4.68 24 4 C21.525 3.505 21.525 3.505 19 3 C19.33 3.33 19.66 3.66 20 4 C19.66666667 5.66666667 19.33333333 7.33333333 19 9 C19.33 9.33 19.66 9.66 20 10 C20.33 8.35 20.66 6.7 21 5 C21.66 5 22.32 5 23 5 C23.99 7.97 24.98 10.94 26 14 C30.19174654 12.95206337 31.21592961 12.08236365 34 9 C36 10.375 36 10.375 38 12 C38 12.66 38 13.32 38 14 C33.61538462 17 33.61538462 17 31 17 C31 17.66 31 18.32 31 19 C29.68 18.67 28.36 18.34 27 18 C26.87625 19.258125 26.7525 20.51625 26.625 21.8125 C26.30131941 25.10325263 25.93395001 26.09907498 24 29 C24.66 29 25.32 29 26 29 C26 33.62 26 38.24 26 43 C25.34 43 24.68 43 24 43 C24 43.66 24 44.32 24 45 C23.34 45 22.68 45 22 45 C21.67 44.34 21.34 43.68 21 43 C20.67 43.33 20.34 43.66 20 44 C20 44.66 20 45.32 20 46 C22.97 45.505 22.97 45.505 26 45 C26 45.66 26 46.32 26 47 C21.71 47 17.42 47 13 47 C13.33 46.01 13.66 45.02 14 44 C14.37125 42.700625 14.37125 42.700625 14.75 41.375 C16 39 16 39 18.375 38.125 C20.86654217 38.00635513 22.64823293 38.21607764 25 39 C24.67 36.69 24.34 34.38 24 32 C23.34 32 22.68 32 22 32 C21.34 33.32 20.68 34.64 20 36 C19.34 36 18.68 36 18 36 C17.505 33.525 17.505 33.525 17 31 C15.68 31.33 14.36 31.66 13 32 C13 31.01 13 30.02 13 29 C12.34 29 11.68 29 11 29 C10.67 30.98 10.34 32.96 10 35 C7.70366176 31.55549263 7.45983515 29.06187717 7 25 C6.67 28.3 6.34 31.6 6 35 C5.67 35 5.34 35 5 35 C4.94602665 32.5622037 4.90634384 30.12560315 4.875 27.6875 C4.85824219 26.99720703 4.84148438 26.30691406 4.82421875 25.59570312 C4.78782206 21.82864604 4.85621136 20.21568296 7 17 C6.34 16.67 5.68 16.34 5 16 C5.66 15.34 6.32 14.68 7 14 C7.33 14 7.66 14 8 14 C8 13.01 8 12.02 8 11 C9.65 11 11.3 11 13 11 C12.67 10.34 12.34 9.68 12 9 C12.33 8.34 12.66 7.68 13 7 C12.34 7.66 11.68 8.32 11 9 C7.5625 9.4375 7.5625 9.4375 4 9 C1.64026206 6.16831447 0.82835682 3.52428175 0 0 Z " fill="#E5AEA3" transform="translate(48,18)"/>
<path d="M0 0 C3.55090207 0 4.93521836 1.08053596 7.57421875 3.359375 C10.05559987 6.21466286 10.86714416 9.42256049 12 13 C12.33 13.33 12.66 13.66 13 14 C13.04063832 15.66617115 13.042721 17.33388095 13 19 C13.66 19 14.32 19 15 19 C15.05421223 22.04190863 15.09377548 25.08283999 15.125 28.125 C15.14175781 28.9809375 15.15851563 29.836875 15.17578125 30.71875 C15.21944053 36.39445657 14.57400577 40.85198845 12 46 C11.34 46 10.68 46 10 46 C10 45.34 10 44.68 10 44 C8.35 43.34 6.7 42.68 5 42 C5.33 42.33 5.66 42.66 6 43 C4.515 43.495 4.515 43.495 3 44 C3.66 45.32 4.32 46.64 5 48 C4.505 48.495 4.505 48.495 4 49 C5.65 49.33 7.3 49.66 9 50 C7.70246293 56.19781004 4.41873604 61.25826963 -0.6875 65 C-4 67 -4 67 -6 67 C-7.32 64.36 -8.64 61.72 -10 59 C-8.71580959 57.32756598 -7.42242815 55.66218553 -6.125 54 C-5.04605469 52.6078125 -5.04605469 52.6078125 -3.9453125 51.1875 C-3.30335937 50.465625 -2.66140625 49.74375 -2 49 C-1.34 49 -0.68 49 0 49 C4.02834705 36.1236764 4.47575394 23.8145098 0 11 C-0.66 11 -1.32 11 -2 11 C-2.83759564 7.64961743 -3.24052591 5.2704774 -2 2 C-1.34 1.34 -0.68 0.68 0 0 Z " fill="#F4DEDA" transform="translate(84,33)"/>
<path d="M0 0 C0.99 0.33 1.98 0.66 3 1 C2.67 1.99 2.34 2.98 2 4 C1.77820215 5.89212737 1.59385985 7.78884472 1.4375 9.6875 C1.35371094 10.68136719 1.26992188 11.67523438 1.18359375 12.69921875 C1.09271484 13.83810547 1.09271484 13.83810547 1 15 C0.24976562 14.68417969 -0.50046875 14.36835937 -1.2734375 14.04296875 C-5.64713378 12.36993593 -9.51070567 11.50356856 -14 13 C-14 15.97 -14 18.94 -14 22 C-11.64214682 21.10664203 -11.64214682 21.10664203 -10.875 17.9375 C-10.441875 16.4834375 -10.441875 16.4834375 -10 15 C-8.68 15 -7.36 15 -6 15 C-5.34 17.31 -4.68 19.62 -4 22 C-3.34 22 -2.68 22 -2 22 C-2 23.98 -2 25.96 -2 28 C-2.99 28 -3.98 28 -5 28 C-5.33 28.99 -5.66 29.98 -6 31 C-3.69 31 -1.38 31 1 31 C1 31.66 1 32.32 1 33 C-2.465 33.495 -2.465 33.495 -6 34 C-4.68 34.66 -3.36 35.32 -2 36 C-4.52475462 37.26237731 -6.31200466 37.09856404 -9.125 37.0625 C-10.03507812 37.05347656 -10.94515625 37.04445312 -11.8828125 37.03515625 C-12.58148438 37.02355469 -13.28015625 37.01195312 -14 37 C-13.67 39.64 -13.34 42.28 -13 45 C-12.01 45 -11.02 45 -10 45 C-9.34 43.35 -8.68 41.7 -8 40 C-5.1615855 41.71798773 -3.31847379 43.07018456 -2.22265625 46.26953125 C-1.74177071 48.49845326 -1.36412363 50.74905393 -1 53 C-5.62 53 -10.24 53 -15 53 C-15.03963867 51.93563721 -15.07927734 50.87127441 -15.12011719 49.7746582 C-15.27264291 45.81343385 -15.45000586 41.85363981 -15.63476562 37.89379883 C-15.71117606 36.18217272 -15.78091177 34.47023474 -15.84375 32.75805664 C-15.93543028 30.29200029 -16.05133309 27.82807503 -16.171875 25.36328125 C-16.20652863 24.22080681 -16.20652863 24.22080681 -16.24188232 23.05525208 C-16.51311495 18.13852486 -17.54104299 15.51053795 -21 12 C-18.03 12.495 -18.03 12.495 -15 13 C-15 11.02 -15 9.04 -15 7 C-14.34 7 -13.68 7 -13 7 C-12.71125 6.360625 -12.4225 5.72125 -12.125 5.0625 C-11 3 -11 3 -9 2 C-9.165 2.94875 -9.33 3.8975 -9.5 4.875 C-10.0526635 7.80168901 -10.0526635 7.80168901 -10 10 C-8.35920758 8.35920758 -8.39887658 6.22231235 -8 4 C-6.865625 3.71125 -5.73125 3.4225 -4.5625 3.125 C-3.386875 2.75375 -2.21125 2.3825 -1 2 C-0.67 1.34 -0.34 0.68 0 0 Z " fill="#E5B0A6" transform="translate(47,34)"/>
<path d="M0 0 C16.70842825 -0.55353075 16.70842825 -0.55353075 25 3 C24.67 3.99 24.34 4.98 24 6 C24 5.34 24 4.68 24 4 C21.525 3.505 21.525 3.505 19 3 C19.33 3.33 19.66 3.66 20 4 C19.66666667 5.66666667 19.33333333 7.33333333 19 9 C19.33 9.33 19.66 9.66 20 10 C20.33 8.35 20.66 6.7 21 5 C21.66 5 22.32 5 23 5 C23.99 7.97 24.98 10.94 26 14 C30.19174654 12.95206337 31.21592961 12.08236365 34 9 C36 10.375 36 10.375 38 12 C38 12.66 38 13.32 38 14 C33.61538462 17 33.61538462 17 31 17 C31 17.66 31 18.32 31 19 C27.15226983 18.45032426 25.67967752 16.67967752 23 14 C22.01 14 21.02 14 20 14 C20.33 14.66 20.66 15.32 21 16 C19.25 18.0625 19.25 18.0625 17 20 C13.79378848 20.10342618 12.69175589 18.73378918 10.25 16.625 C8 14 8 14 8 11 C9.65 11 11.3 11 13 11 C12.67 10.34 12.34 9.68 12 9 C12.33 8.34 12.66 7.68 13 7 C12.34 7.66 11.68 8.32 11 9 C7.5625 9.4375 7.5625 9.4375 4 9 C1.64026206 6.16831447 0.82835682 3.52428175 0 0 Z " fill="#F8E9E6" transform="translate(48,18)"/>
<path d="M0 0 C0.99 0.33 1.98 0.66 3 1 C3 1.66 3 2.32 3 3 C3.66 3 4.32 3 5 3 C10.32125941 11.77398498 13.16263144 19.603716 12 30 C11.21588249 32.54271632 10.23790249 34.62735356 9 37 C8.67 36.34 8.34 35.68 8 35 C7.01 35 6.02 35 5 35 C5 35.66 5 36.32 5 37 C3.68 37 2.36 37 1 37 C0.67 24.79 0.34 12.58 0 0 Z " fill="#F9ECE9" transform="translate(75,38)"/>
<path d="M0 0 C0 2.64 0 5.28 0 8 C-1.32 8 -2.64 8 -4 8 C-3.35675781 8.29390625 -2.71351562 8.5878125 -2.05078125 8.890625 C1.25954275 12.29552968 0.7227282 16.16922257 0.8125 20.75 C0.8597522 22.15125122 0.8597522 22.15125122 0.90795898 23.58081055 C1.11841765 31.43770992 0.78070522 39.18093698 0 47 C-1.7074998 45.71937515 -3.37373596 44.38232443 -5 43 C-5 42.34 -5 41.68 -5 41 C-4.01 40.505 -4.01 40.505 -3 40 C-2.67 39.01 -2.34 38.02 -2 37 C-3.65 37.66 -5.3 38.32 -7 39 C-7 37 -7 37 -5 35 C-5 34.34 -5 33.68 -5 33 C-7.0745356 31.7763932 -7.0745356 31.7763932 -10 32 C-9.814375 31.360625 -9.62875 30.72125 -9.4375 30.0625 C-9.293125 29.381875 -9.14875 28.70125 -9 28 C-9.33 27.67 -9.66 27.34 -10 27 C-10.33 26.34 -10.66 25.68 -11 25 C-9.35 25 -7.7 25 -6 25 C-6 24.34 -6 23.68 -6 23 C-7.32 22.67 -8.64 22.34 -10 22 C-8.68 22 -7.36 22 -6 22 C-6.66 21.34 -7.32 20.68 -8 20 C-8.66 20 -9.32 20 -10 20 C-10 17.36 -10 14.72 -10 12 C-9.34 12 -8.68 12 -8 12 C-7.67 11.34 -7.34 10.68 -7 10 C-7 10.66 -7 11.32 -7 12 C-6.34 11.67 -5.68 11.34 -5 11 C-5 10.34 -5 9.68 -5 9 C-5.66 9 -6.32 9 -7 9 C-5.99432671 5.98298013 -3.90847918 0 0 0 Z " fill="#FBF4F2" transform="translate(31,39)"/>
<path d="M0 0 C0.556875 0.680625 0.556875 0.680625 1.125 1.375 C3.54264685 3.47029394 5.95430602 4.12013285 9 5 C8.67 6.98 8.34 8.96 8 11 C7.34 11 6.68 11 6 11 C6 10.34 6 9.68 6 9 C4.35 8.34 2.7 7.68 1 7 C1.33 7.33 1.66 7.66 2 8 C1.01 8.33 0.02 8.66 -1 9 C-0.34 10.32 0.32 11.64 1 13 C0.67 13.33 0.34 13.66 0 14 C1.65 14.33 3.3 14.66 5 15 C3.70246293 21.19781004 0.41873604 26.25826963 -4.6875 30 C-8 32 -8 32 -10 32 C-11.32 29.36 -12.64 26.72 -14 24 C-12.71580959 22.32756598 -11.42242815 20.66218553 -10.125 19 C-9.40570313 18.071875 -8.68640625 17.14375 -7.9453125 16.1875 C-7.30335937 15.465625 -6.66140625 14.74375 -6 14 C-5.34 14 -4.68 14 -4 14 C-3.79503906 13.15695313 -3.59007813 12.31390625 -3.37890625 11.4453125 C-3.10949219 10.34960938 -2.84007813 9.25390625 -2.5625 8.125 C-2.29566406 7.03445312 -2.02882813 5.94390625 -1.75390625 4.8203125 C-1 2 -1 2 0 0 Z " fill="#FDFBFA" transform="translate(88,68)"/>
<path d="M0 0 C0.66 0 1.32 0 2 0 C2 1.98 2 3.96 2 6 C1.01 6 0.02 6 -1 6 C-1.33 6.99 -1.66 7.98 -2 9 C0.31 9 2.62 9 5 9 C5 9.66 5 10.32 5 11 C2.69 11.33 0.38 11.66 -2 12 C-0.68 12.66 0.64 13.32 2 14 C-0.52475462 15.26237731 -2.31200466 15.09856404 -5.125 15.0625 C-6.03507812 15.05347656 -6.94515625 15.04445313 -7.8828125 15.03515625 C-8.58148438 15.02355469 -9.28015625 15.01195313 -10 15 C-9.67 17.64 -9.34 20.28 -9 23 C-8.01 23 -7.02 23 -6 23 C-5.34 21.35 -4.68 19.7 -4 18 C-1.1615855 19.71798773 0.68152621 21.07018456 1.77734375 24.26953125 C2.25822929 26.49845326 2.63587637 28.74905393 3 31 C-1.62 31 -6.24 31 -11 31 C-11.33 23.74 -11.66 16.48 -12 9 C-9.36 9 -6.72 9 -4 9 C-4 8.01 -4 7.02 -4 6 C-5.32 5.67 -6.64 5.34 -8 5 C-7.67 4.34 -7.34 3.68 -7 3 C-5.68 3.33 -4.36 3.66 -3 4 C-2.67 3.01 -2.34 2.02 -2 1 C-1.34 1.33 -0.68 1.66 0 2 C0 1.34 0 0.68 0 0 Z " fill="#E09F93" transform="translate(43,56)"/>
<path d="M0 0 C1.98 0.66 3.96 1.32 6 2 C4.68 3.65 3.36 5.3 2 7 C3.65 6.34 5.3 5.68 7 5 C7.33 6.98 7.66 8.96 8 11 C7.01 11.33 6.02 11.66 5 12 C5.99 12 6.98 12 8 12 C8.66 12 9.32 12 10 12 C9.67 13.32 9.34 14.64 9 16 C8.34 16 7.68 16 7 16 C8.32 17.65 9.64 19.3 11 21 C11.33 17.04 11.66 13.08 12 9 C12.33 9 12.66 9 13 9 C13.495 15.93 13.495 15.93 14 23 C20.93 23.495 20.93 23.495 28 24 C28.495 25.485 28.495 25.485 29 27 C35.435 26.505 35.435 26.505 42 26 C42 26.66 42 27.32 42 28 C36.72 28 31.44 28 26 28 C26 27.34 26 26.68 26 26 C25.04738281 26.13019531 24.09476563 26.26039062 23.11328125 26.39453125 C13.04875823 27.50131847 13.04875823 27.50131847 9.95703125 26.0234375 C8.077908 24.13880363 7 22.70950463 7 20 C3.37 20 -0.26 20 -4 20 C-2.68 18.02 -1.36 16.04 0 14 C0.33 14.66 0.66 15.32 1 16 C0.67 16.66 0.34 17.32 0 18 C1.32 18 2.64 18 4 18 C3.71125 17.3709375 3.4225 16.741875 3.125 16.09375 C0.65689223 10.40339042 -0.45882643 6.19415679 0 0 Z " fill="#EDC8C1" transform="translate(19,64)"/>
<path d="M0 0 C1.80791016 0.13535156 1.80791016 0.13535156 3.65234375 0.2734375 C6.51995042 0.56906705 9.25269255 0.99585905 12.0625 1.625 C12.0625 1.955 12.0625 2.285 12.0625 2.625 C5.6275 3.12 5.6275 3.12 -0.9375 3.625 C-0.2775 5.275 0.3825 6.925 1.0625 8.625 C1.3925 9.615 1.7225 10.605 2.0625 11.625 C5.18540635 11.13921457 8.05830359 10.6263988 11.0625 9.625 C10.7325 10.615 10.4025 11.605 10.0625 12.625 C8.65097656 12.71587891 8.65097656 12.71587891 7.2109375 12.80859375 C5.96570313 12.89238281 4.72046875 12.97617187 3.4375 13.0625 C2.20773438 13.14371094 0.97796875 13.22492187 -0.2890625 13.30859375 C-3.55282388 13.59163944 -6.71693859 14.03538953 -9.9375 14.625 C-10.9275 11.655 -11.9175 8.685 -12.9375 5.625 C-11.6175 5.295 -10.2975 4.965 -8.9375 4.625 C-9.5975 4.625 -10.2575 4.625 -10.9375 4.625 C-10.9375 3.305 -10.9375 1.985 -10.9375 0.625 C-7.21077319 -0.62034013 -3.88387234 -0.30673058 0 0 Z " fill="#F2D7D2" transform="translate(49.9375,15.375)"/>
<path d="M0 0 C8.81415929 -0.29380531 8.81415929 -0.29380531 12 2 C13.56430248 5.12860495 13.35627284 7.55602925 13 11 C10.83868824 13.63409871 9.32118648 14.85103073 5.88671875 15.23828125 C3.92290019 15.24874565 1.95934865 15.1328372 0 15 C0 10.05 0 5.1 0 0 Z " fill="#D5D4D4" transform="translate(255,67)"/>
<path d="M0 0 C2.375 1 2.375 1 4 3 C4.45352711 6.17468977 4.69511624 7.98984447 4 11 C1.875 13.5625 1.875 13.5625 -1 15 C-4.52397438 15 -6.24275308 14.68152223 -8.875 12.3125 C-10.35810604 9.26389315 -10.48891657 7.35257076 -10 4 C-7.20125452 -0.09047416 -4.83066808 -0.70447243 0 0 Z " fill="#CBCBCB" transform="translate(339,67)"/>
<path d="M0 0 C1.9375 1.0625 1.9375 1.0625 3 3 C3.3931463 6.60384106 3.39343329 9.09741776 1.9375 12.4375 C0 14 0 14 -3.4375 14.5 C-7 14 -7 14 -9.4375 12.375 C-11.47161336 9.28314769 -11.60605429 7.63632575 -11 4 C-8.05323917 -0.47907646 -5.13567732 -0.65363166 0 0 Z " fill="#CCCCCC" transform="translate(339,44)"/>
<path d="M0 0 C2.99220268 1.36370299 5.29026529 2.94908083 7.75 5.125 C8.67039062 5.93324219 8.67039062 5.93324219 9.609375 6.7578125 C10.06828125 7.16773437 10.5271875 7.57765625 11 8 C11 7.34 11 6.68 11 6 C12.98 5.01 14.96 4.02 17 3 C16.67 5.31 16.34 7.62 16 10 C15.34 9.34 14.68 8.68 14 8 C14 9.32 14 10.64 14 12 C16.64 12.66 19.28 13.32 22 14 C22.33 11.36 22.66 8.72 23 6 C24.32 6.66 25.64 7.32 27 8 C26.01 8 25.02 8 24 8 C23.67 9.65 23.34 11.3 23 13 C24.94074861 12.72382467 24.94074861 12.72382467 27 12 C27.66 11.01 28.32 10.02 29 9 C28.67 10.65 28.34 12.3 28 14 C27.01 14.33 26.02 14.66 25 15 C30.70940849 16.98588121 35.96084865 17.47474133 42 17 C42.66 16.67 43.32 16.34 44 16 C43.505 15.01 43.505 15.01 43 14 C43.99 14 44.98 14 46 14 C45.505 11.525 45.505 11.525 45 9 C45.66 9.33 46.32 9.66 47 10 C46.979375 10.763125 46.95875 11.52625 46.9375 12.3125 C46.87057159 15.10185786 46.87057159 15.10185786 48 18 C38.29968363 21.23343879 26.49828025 18.85096126 17 16 C16.34 15.67 15.68 15.34 15 15 C15 14.34 15 13.68 15 13 C14.26136719 12.90203125 13.52273437 12.8040625 12.76171875 12.703125 C8.16579879 11.53301808 5.1876042 8.40249886 2 5 C0.5 2.0625 0.5 2.0625 0 0 Z " fill="#E2A599" transform="translate(16,91)"/>
<path d="M0 0 C0.33 0 0.66 0 1 0 C1.0270491 3.06255961 1.04686298 6.1248786 1.0625 9.1875 C1.07087891 10.05181641 1.07925781 10.91613281 1.08789062 11.80664062 C1.10396812 16.00286769 1.07559038 19.90936886 0 24 C-0.33 23.01 -0.66 22.02 -1 21 C-3.33010909 20.32215008 -5.66359824 19.65583207 -8 19 C-10.28062828 15.57905758 -10.21925007 14.31812778 -10.125 10.3125 C-10.10695313 9.31863281 -10.08890625 8.32476562 -10.0703125 7.30078125 C-10.04710938 6.54152344 -10.02390625 5.78226563 -10 5 C-7.03 5 -4.06 5 -1 5 C-0.67 3.35 -0.34 1.7 0 0 Z " fill="#FAEFED" transform="translate(98,52)"/>
<path d="M0 0 C1.65 0 3.3 0 5 0 C7.12905975 7.46887895 6.57079975 14.15596715 3 21 C2.67 20.34 2.34 19.68 2 19 C1.01 19 0.02 19 -1 19 C-1 19.66 -1 20.32 -1 21 C-1.66 21 -2.32 21 -3 21 C-2.67 14.73 -2.34 8.46 -2 2 C-1.34 2.33 -0.68 2.66 0 3 C0 2.01 0 1.02 0 0 Z " fill="#F0D1CC" transform="translate(81,54)"/>
<path d="M0 0 C3.64775386 3.88309282 4.58525633 6.71201818 5 12 C5.66 11.01 6.32 10.02 7 9 C7.66 9 8.32 9 9 9 C8.88601335 10.62580966 8.75844341 12.25067157 8.625 13.875 C8.55539063 14.77992187 8.48578125 15.68484375 8.4140625 16.6171875 C8 19 8 19 6 21 C3 22 3 22 0 22 C-0.99 21.34 -1.98 20.68 -3 20 C-3 20.66 -3 21.32 -3 22 C-2.34 22.33 -1.68 22.66 -1 23 C-1.99 23.33 -2.98 23.66 -4 24 C-4.18309406 18.69027217 -3.81180536 15.03279267 -2 10 C-1.2600555 6.68024898 -0.62118462 3.34382357 0 0 Z " fill="#E4ABA0" transform="translate(52,38)"/>
<path d="M0 0 C0.99 0.33 1.98 0.66 3 1 C2.67 1.99 2.34 2.98 2 4 C1.77820215 5.89212737 1.59385985 7.78884472 1.4375 9.6875 C1.35371094 10.68136719 1.26992188 11.67523438 1.18359375 12.69921875 C1.09271484 13.83810547 1.09271484 13.83810547 1 15 C0.24976562 14.68417969 -0.50046875 14.36835937 -1.2734375 14.04296875 C-5.64713378 12.36993593 -9.51070567 11.50356856 -14 13 C-14 13.66 -14 14.32 -14 15 C-14.66 15 -15.32 15 -16 15 C-15.67 12.36 -15.34 9.72 -15 7 C-14.34 7 -13.68 7 -13 7 C-12.71125 6.360625 -12.4225 5.72125 -12.125 5.0625 C-11 3 -11 3 -9 2 C-9.165 2.94875 -9.33 3.8975 -9.5 4.875 C-10.0526635 7.80168901 -10.0526635 7.80168901 -10 10 C-8.35920758 8.35920758 -8.39887658 6.22231235 -8 4 C-6.865625 3.71125 -5.73125 3.4225 -4.5625 3.125 C-3.386875 2.75375 -2.21125 2.3825 -1 2 C-0.67 1.34 -0.34 0.68 0 0 Z " fill="#EABEB5" transform="translate(47,34)"/>
<path d="M0 0 C3.63 0 7.26 0 11 0 C11 0.66 11 1.32 11 2 C16.28 2 21.56 2 27 2 C27 1.34 27 0.68 27 0 C30.63 0 34.26 0 38 0 C31.15557171 6.22220754 24.4601027 6.44252533 15.52734375 6.328125 C9.7420192 5.78995527 4.17516043 4.17516043 0 0 Z " fill="#FCF7F6" transform="translate(34,90)"/>
<path d="M0 0 C0.99 0.33 1.98 0.66 3 1 C3 5.62 3 10.24 3 15 C2.34 15 1.68 15 1 15 C1 15.66 1 16.32 1 17 C0.34 17 -0.32 17 -1 17 C-1.33 16.34 -1.66 15.68 -2 15 C-2.33 15.33 -2.66 15.66 -3 16 C-3 16.66 -3 17.32 -3 18 C-1.02 17.67 0.96 17.34 3 17 C3 17.66 3 18.32 3 19 C-1.29 19 -5.58 19 -10 19 C-9.505 17.515 -9.505 17.515 -9 16 C-8.7525 15.13375 -8.505 14.2675 -8.25 13.375 C-7 11 -7 11 -4.625 10.125 C-2.13345783 10.00635513 -0.35176707 10.21607764 2 11 C1.67 8.69 1.34 6.38 1 4 C0.34 4 -0.32 4 -1 4 C-1.66 5.32 -2.32 6.64 -3 8 C-3.66 8 -4.32 8 -5 8 C-5.33 6.35 -5.66 4.7 -6 3 C-7.32 3.33 -8.64 3.66 -10 4 C-9.67 3.01 -9.34 2.02 -9 1 C-6.01002175 -0.49498913 -3.29957225 -0.11577446 0 0 Z " fill="#F6E4E1" transform="translate(71,46)"/>
<path d="M0 0 C3 2 3 2 3.6875 5.125 C3.8421875 6.548125 3.8421875 6.548125 4 8 C7.465 7.505 7.465 7.505 11 7 C10.01 7.495 10.01 7.495 9 8 C9 8.66 9 9.32 9 10 C9.66 10 10.32 10 11 10 C11 10.66 11 11.32 11 12 C10.01 12.495 10.01 12.495 9 13 C9.99 13.66 10.98 14.32 12 15 C9.36 15 6.72 15 4 15 C4.22632031 22.01592965 5.83951778 26.05736452 9.8203125 31.8359375 C10.40425781 32.90714844 10.40425781 32.90714844 11 34 C10.67 34.99 10.34 35.98 10 37 C9.34 35.68 8.68 34.36 8 33 C7.34 33 6.68 33 6 33 C0.87934797 21.6766534 -0.82881373 12.40150909 0 0 Z " fill="#EECBC4" transform="translate(5,54)"/>
<path d="M0 0 C0.8146875 0.00257812 1.629375 0.00515625 2.46875 0.0078125 C3.2834375 0.00523438 4.098125 0.00265625 4.9375 0 C6.96875 0.1328125 6.96875 0.1328125 7.96875 1.1328125 C8.04054964 2.65209288 8.05267007 4.17448732 8.03125 5.6953125 C8.02222656 6.52160156 8.01320313 7.34789063 8.00390625 8.19921875 C7.99230469 8.83730469 7.98070312 9.47539063 7.96875 10.1328125 C6.64875 10.4628125 5.32875 10.7928125 3.96875 11.1328125 C3.30875 10.1428125 2.64875 9.1528125 1.96875 8.1328125 C0.64875 11.4328125 -0.67125 14.7328125 -2.03125 18.1328125 C-3.20919853 14.59896691 -3.16389317 11.73003697 -3.15625 8.0078125 C-3.16011719 6.11675781 -3.16011719 6.11675781 -3.1640625 4.1875 C-2.9904987 0.19553261 -2.9904987 0.19553261 0 0 Z " fill="#FDFBFA" transform="translate(51.03125,62.8671875)"/>
<path d="M0 0 C1.21683137 3.65049412 1.0114343 6.3116349 0.34375 10.01171875 C0.14072266 11.14770508 0.14072266 11.14770508 -0.06640625 12.30664062 C-0.28103516 13.48516602 -0.28103516 13.48516602 -0.5 14.6875 C-0.71462891 15.88342773 -0.71462891 15.88342773 -0.93359375 17.10351562 C-1.28675148 19.06942697 -1.64307169 21.03476974 -2 23 C-2.66 23 -3.32 23 -4 23 C-4.02690844 20.37493198 -4.04679404 17.75013827 -4.0625 15.125 C-4.07087891 14.37863281 -4.07925781 13.63226563 -4.08789062 12.86328125 C-4.11328125 7.2265625 -4.11328125 7.2265625 -3 5 C-3.66 4.67 -4.32 4.34 -5 4 C-5.66 5.32 -6.32 6.64 -7 8 C-7.99 8 -8.98 8 -10 8 C-12.1875 5.5 -12.1875 5.5 -14 3 C-10.36129488 0.67122873 -7.23444833 0.8402095 -3 1 C-1.7763932 1.0745356 -1.7763932 1.0745356 0 0 Z " fill="#FCF6F5" transform="translate(52,30)"/>
<path d="M0 0 C2.8384145 1.71798773 4.68152621 3.07018456 5.77734375 6.26953125 C6.26033279 8.50820309 6.67548233 10.73321986 7 13 C5.02090602 13.02686553 3.04171029 13.04633375 1.0625 13.0625 C-0.03964844 13.07410156 -1.14179687 13.08570312 -2.27734375 13.09765625 C-5 13 -5 13 -6 12 C-5.71269945 9.66055264 -5.38063221 7.3260857 -5 5 C-4.01 5 -3.02 5 -2 5 C-1.34 3.35 -0.68 1.7 0 0 Z " fill="#ECC4BC" transform="translate(39,74)"/>
<path d="M0 0 C1.98 0 3.96 0 6 0 C8.4008063 3.84129009 8.64225559 7.56396935 9 12 C8.67 12.66 8.34 13.32 8 14 C5.69 14 3.38 14 1 14 C0.67 9.38 0.34 4.76 0 0 Z " fill="#949393" transform="translate(288,67)"/>
<path d="M0 0 C0.66 0 1.32 0 2 0 C2.99 2.97 3.98 5.94 5 9 C9.19174654 7.95206337 10.21592961 7.08236365 13 4 C15 5.375 15 5.375 17 7 C17 7.66 17 8.32 17 9 C12.61538462 12 12.61538462 12 10 12 C10 12.66 10 13.32 10 14 C6.14499441 13.44928492 4.68606223 11.68606223 2 9 C0.68 8.67 -0.64 8.34 -2 8 C-1.34 5.36 -0.68 2.72 0 0 Z " fill="#FCF8F7" transform="translate(69,23)"/>
<path d="M0 0 C2 1 2 1 2.75 2.8125 C3.05694702 5.49828639 2.38111722 6.7252187 1 9 C1.78375 8.79375 2.5675 8.5875 3.375 8.375 C4.674375 8.189375 4.674375 8.189375 6 8 C6.66 8.66 7.32 9.32 8 10 C6.35 10.66 4.7 11.32 3 12 C3 12.66 3 13.32 3 14 C0.69 14.33 -1.62 14.66 -4 15 C-3.01 14.67 -2.02 14.34 -1 14 C-1 13.34 -1 12.68 -1 12 C-1.66 11.67 -2.32 11.34 -3 11 C-3 10.67 -3 10.34 -3 10 C-4.32 10 -5.64 10 -7 10 C-7.4375 7.8125 -7.4375 7.8125 -7 5 C-4.86004673 3.01558218 -2.49824035 1.4976696 0 0 Z " fill="#F8EAE7" transform="translate(65,95)"/>
<path d="M0 0 C6.45789111 0.60923501 6.45789111 0.60923501 8.70703125 2.23046875 C10.42336252 4.57940551 10.40077677 6.11300199 10.375 9 C10.38273437 9.86625 10.39046875 10.7325 10.3984375 11.625 C9.93393358 14.39380767 9.15199754 15.26929299 7 17 C6.67 16.34 6.34 15.68 6 15 C5.34 14.67 4.68 14.34 4 14 C4 12.02 4 10.04 4 8 C3.34 8 2.68 8 2 8 C2.875 4.125 2.875 4.125 4 3 C2.68 2.01 1.36 1.02 0 0 Z " fill="#ECC4BC" transform="translate(64,30)"/>
<path d="M0 0 C5.28 0 10.56 0 16 0 C16 0.33 16 0.66 16 1 C14.35 1 12.7 1 11 1 C11.66 2.98 12.32 4.96 13 7 C11 9 11 9 7.5625 9.4375 C4 9 4 9 2.125 6.75 C1 4 1 4 0 0 Z " fill="#FEFDFD" transform="translate(48,18)"/>
<path d="M0 0 C3 1 3 1 4 3 C4.66 3.33 5.32 3.66 6 4 C5.67 5.32 5.34 6.64 5 8 C5.99 8.33 6.98 8.66 8 9 C8 10.65 8 12.3 8 14 C7.01 14 6.02 14 5 14 C5 12.68 5 11.36 5 10 C3.35 10.33 1.7 10.66 0 11 C-0.33 11.99 -0.66 12.98 -1 14 C-2.32 13.67 -3.64 13.34 -5 13 C-5 11.35 -5 9.7 -5 8 C-4.01 8.495 -4.01 8.495 -3 9 C-2.01 6.03 -1.02 3.06 0 0 Z " fill="#DE9A8D" transform="translate(52,70)"/>
<path d="M0 0 C0.66 0.33 1.32 0.66 2 1 C2 3.31 2 5.62 2 8 C-0.86724686 7.42655063 -1.8614515 7.1385485 -4 5 C-4.66 6.32 -5.32 7.64 -6 9 C-6.99 9 -7.98 9 -9 9 C-9.33 9.66 -9.66 10.32 -10 11 C-10 7.7 -10 4.4 -10 1 C-6.49852959 -0.1671568 -3.67329964 -0.13357453 0 0 Z " fill="#FDF9F8" transform="translate(43,70)"/>
<path d="M0 0 C6 0 6 0 9 2 C8.7525 3.051875 8.505 4.10375 8.25 5.1875 C7.6110158 9.05366249 7.6110158 9.05366249 9.9375 11.9375 C10.618125 12.618125 11.29875 13.29875 12 14 C10.125 13.6875 10.125 13.6875 8 13 C7.34 12.01 6.68 11.02 6 10 C5.01 9.67 4.02 9.34 3 9 C3 10.65 3 12.3 3 14 C2.34 14 1.68 14 1 14 C0.67 9.38 0.34 4.76 0 0 Z " fill="#7C7B7B" transform="translate(187,67)"/>
<path d="M0 0 C0.66 0.66 1.32 1.32 2 2 C-0.31 1.67 -2.62 1.34 -5 1 C-4.67 2.65 -4.34 4.3 -4 6 C-4.99 6 -5.98 6 -7 6 C-7 7.32 -7 8.64 -7 10 C-7.99 9.67 -8.98 9.34 -10 9 C-9.67 7.02 -9.34 5.04 -9 3 C-9.33 3.66 -9.66 4.32 -10 5 C-11.299375 4.773125 -12.59875 4.54625 -13.9375 4.3125 C-19.18820828 3.69575014 -23.18942482 4.98706429 -28 7 C-25.23670217 2.76760713 -22.8704247 1.8240203 -18.109375 0.53515625 C-12.15416486 -0.48979826 -6.01112168 -0.57857046 0 0 Z " fill="#E6B4AB" transform="translate(61,28)"/>
<path d="M0 0 C2 2 2 2 2 5 C2.66 5 3.32 5 4 5 C4.268125 4.360625 4.53625 3.72125 4.8125 3.0625 C6 1 6 1 9 0 C9 1.65 9 3.3 9 5 C7.68 4.67 6.36 4.34 5 4 C5.33 5.32 5.66 6.64 6 8 C5.01 8.495 5.01 8.495 4 9 C3.6059614 11.41890149 3.6059614 11.41890149 3.5 14.25 C3.28307474 18.26311731 2.66137311 21.32890136 1 25 C0.67 25 0.34 25 0 25 C0 16.75 0 8.5 0 0 Z " fill="#FEFDFD" transform="translate(76,50)"/>
<path d="M0 0 C1.98 0 3.96 0 6 0 C6.66 0.66 7.32 1.32 8 2 C7.79375 3.093125 7.5875 4.18625 7.375 5.3125 C6.60053166 9.06779422 6.60053166 9.06779422 8.9375 11.9375 C9.618125 12.618125 10.29875 13.29875 11 14 C7.56404834 12.47291037 4.88087546 10.40072955 2 8 C2 9.98 2 11.96 2 14 C1.34 14 0.68 14 0 14 C0 9.38 0 4.76 0 0 Z " fill="#747373" transform="translate(242,44)"/>
<path d="M0 0 C0.66 0 1.32 0 2 0 C2 1.32 2 2.64 2 4 C2.66 4 3.32 4 4 4 C4 3.34 4 2.68 4 2 C5.9914056 1.61866701 7.99279077 1.28674418 10 1 C11 2 11 2 11.1875 4.375 C11 7 11 7 9 10 C8.67 8.68 8.34 7.36 8 6 C7.01 6 6.02 6 5 6 C4.67 7.98 4.34 9.96 4 12 C2.35 12.33 0.7 12.66 -1 13 C-1.33 12.01 -1.66 11.02 -2 10 C-1.34 10 -0.68 10 0 10 C0 6.7 0 3.4 0 0 Z " fill="#DF9C8F" transform="translate(63,73)"/>
<path d="M0 0 C1.98 0 3.96 0 6 0 C6.33 0.33 6.66 0.66 7 1 C6.938125 2.2375 6.87625 3.475 6.8125 4.75 C6.74367558 8.22876139 6.95007804 8.92511706 9 12 C9.66 12.66 10.32 13.32 11 14 C6.75177626 13.52797514 4.80010291 11.03344482 2 8 C2 9.98 2 11.96 2 14 C1.01 13.67 0.02 13.34 -1 13 C-0.67 8.71 -0.34 4.42 0 0 Z " fill="#6F6E6E" transform="translate(347,44)"/>
<path d="M0 0 C2.3592344 1.65146408 3.55897274 2.56481457 5 5 C5.83040271 10.90956494 5.68001527 15.63996947 3 21 C2.34 17.7 1.68 14.4 1 11 C0.67 14.3 0.34 17.6 0 21 C-0.33 21 -0.66 21 -1 21 C-1.05397335 18.5622037 -1.09365616 16.12560315 -1.125 13.6875 C-1.14175781 12.99720703 -1.15851562 12.30691406 -1.17578125 11.59570312 C-1.21217794 7.82864604 -1.14378864 6.21568296 1 3 C0.34 2.67 -0.32 2.34 -1 2 C-0.67 1.34 -0.34 0.68 0 0 Z " fill="#FCF8F7" transform="translate(54,32)"/>
<path d="M0 0 C1.64671412 0.30782496 3.29235576 0.62139234 4.9375 0.9375 C5.85402344 1.11152344 6.77054688 1.28554688 7.71484375 1.46484375 C10 2 10 2 11 3 C11.04080783 4.99958364 11.04254356 7.00045254 11 9 C9.68 8.67 8.36 8.34 7 8 C6.67 6.68 6.34 5.36 6 4 C4.03243548 4.03122943 4.03243548 4.03122943 2 5 C0.6954344 7.99615946 0.6954344 7.99615946 0 11 C-0.66 11 -1.32 11 -2 11 C-2 8.03 -2 5.06 -2 2 C-1.34 2 -0.68 2 0 2 C0 1.34 0 0.68 0 0 Z " fill="#F6E4E1" transform="translate(35,45)"/>
<path d="M0 0 C8.70934321 -0.28555224 16.92741867 0.54447058 25 4 C25 4.66 25 5.32 25 6 C25.99 6.33 26.98 6.66 28 7 C26.68 7.33 25.36 7.66 24 8 C24 8.66 24 9.32 24 10 C23.01 10.33 22.02 10.66 21 11 C21 10.01 21 9.02 21 8 C20.34 8 19.68 8 19 8 C18.67 9.65 18.34 11.3 18 13 C17.34 12.67 16.68 12.34 16 12 C16.66 10.35 17.32 8.7 18 7 C17.34 7 16.68 7 16 7 C16.33 6.34 16.66 5.68 17 5 C18.65 5.66 20.3 6.32 22 7 C20.06744368 5.06744368 16.9307189 4.73174267 14.375 4 C12.56128906 3.4740625 12.56128906 3.4740625 10.7109375 2.9375 C7.11156108 2.02818385 3.67698697 1.45371562 0 1 C0 0.67 0 0.34 0 0 Z " fill="#E4ACA2" transform="translate(50,15)"/>
<path d="M0 0 C0.33 0 0.66 0 1 0 C1.18451025 15.74487472 1.18451025 15.74487472 0 23 C-3.12790734 19.87209266 -3.17894943 16.9893504 -3.25 12.75 C-3.22328581 7.72105393 -2.35285852 4.41160973 0 0 Z " fill="#FEFDFC" transform="translate(30,50)"/>
<path d="M0 0 C0.66 0.66 1.32 1.32 2 2 C0.6875 3.5 0.6875 3.5 -1 5 C-1.99 5 -2.98 5 -4 5 C-4 5.66 -4 6.32 -4 7 C-4.66 7 -5.32 7 -6 7 C-6 5.68 -6 4.36 -6 3 C-7.07773654 5.15547309 -7.29357254 6.74307106 -7.5625 9.125 C-7.7790625 11.043125 -7.7790625 11.043125 -8 13 C-8.66 13 -9.32 13 -10 13 C-10.08086147 11.20906809 -10.13912702 9.41710372 -10.1875 7.625 C-10.22230469 6.62726563 -10.25710937 5.62953125 -10.29296875 4.6015625 C-10.14794922 3.31378906 -10.14794922 3.31378906 -10 2 C-6.32653229 -0.44897847 -4.33643601 -0.31537716 0 0 Z " fill="#FDFBFA" transform="translate(71,70)"/>
<path d="M0 0 C0.33 0.66 0.66 1.32 1 2 C-0.07826365 3.27513763 -1.16285519 4.54492569 -2.25 5.8125 C-2.85328125 6.52019531 -3.4565625 7.22789063 -4.078125 7.95703125 C-5.95707211 9.9543673 -7.64879512 11.58457466 -10 13 C-10.99 12.67 -11.98 12.34 -13 12 C-12.67 11.67 -12.34 11.34 -12 11 C-14.97 10.67 -17.94 10.34 -21 10 C-21 9.34 -21 8.68 -21 8 C-16.38 8 -11.76 8 -7 8 C-6.67 6.68 -6.34 5.36 -6 4 C-6 4.66 -6 5.32 -6 6 C-3.83333333 5.16666667 -3.83333333 5.16666667 -3 3 C-2 1 -2 1 0 0 Z " fill="#E3A79B" transform="translate(82,80)"/>
<path d="M0 0 C0.66 0.33 1.32 0.66 2 1 C0.25 4.875 0.25 4.875 -2 6 C-2 6.99 -2 7.98 -2 9 C-4.475 8.01 -4.475 8.01 -7 7 C-7.99 8.485 -7.99 8.485 -9 10 C-7.02 10.66 -5.04 11.32 -3 12 C-5 14 -5 14 -7 15 C-7.33 15.66 -7.66 16.32 -8 17 C-9.80240037 14.47663949 -10.94719659 12.68644438 -11.1875 9.5625 C-9.07373175 5.00121062 -4.42378861 2.2118943 0 0 Z " fill="#F1D4CE" transform="translate(34,20)"/>
<path d="M0 0 C5.61 0 11.22 0 17 0 C17.33 0.99 17.66 1.98 18 3 C24.435 2.505 24.435 2.505 31 2 C31 2.66 31 3.32 31 4 C25.72 4 20.44 4 15 4 C15 3.34 15 2.68 15 2 C10.38 2.33 5.76 2.66 1 3 C0.67 2.01 0.34 1.02 0 0 Z " fill="#E4ABA0" transform="translate(30,88)"/>
<path d="M0 0 C2.05078125 0.03255208 4.1015625 0.06510417 6.15234375 0.09765625 C5.82234375 3.39765625 5.49234375 6.69765625 5.15234375 10.09765625 C4.82234375 9.10765625 4.49234375 8.11765625 4.15234375 7.09765625 C0.64043566 5.86795747 0.64043566 5.86795747 -2.84765625 5.09765625 C-2.84765625 0.15051037 -2.84765625 0.15051037 0 0 Z " fill="#F1D3CD" transform="translate(92.84765625,65.90234375)"/>
<path d="M0 0 C1 3 1 3 0.0625 5.1875 C-0.4634375 6.0846875 -0.4634375 6.0846875 -1 7 C-0.34 7 0.32 7 1 7 C1.33 5.35 1.66 3.7 2 2 C2.99 1.67 3.98 1.34 5 1 C5.33 1.66 5.66 2.32 6 3 C5.01 3 4.02 3 3 3 C3.33 4.65 3.66 6.3 4 8 C4.66 8 5.32 8 6 8 C6 8.66 6 9.32 6 10 C4.906875 9.979375 3.81375 9.95875 2.6875 9.9375 C-0.94384191 9.81455548 -0.94384191 9.81455548 -4 11 C-4 11.66 -4 12.32 -4 13 C-4.66 13 -5.32 13 -6 13 C-5.67 10.36 -5.34 7.72 -5 5 C-4.34 5 -3.68 5 -3 5 C-2.5359375 4.0409375 -2.5359375 4.0409375 -2.0625 3.0625 C-1 1 -1 1 0 0 Z " fill="#E2A79C" transform="translate(37,36)"/>
<path d="M0 0 C2.05078125 0.03255208 4.1015625 0.06510417 6.15234375 0.09765625 C5.49234375 0.75765625 4.83234375 1.41765625 4.15234375 2.09765625 C3.76947572 5.83061951 4.0031859 6.87391948 6.15234375 10.09765625 C3.51234375 10.09765625 0.87234375 10.09765625 -1.84765625 10.09765625 C-1.51765625 9.43765625 -1.18765625 8.77765625 -0.84765625 8.09765625 C-0.80766425 6.09805613 -0.80418826 4.09718383 -0.84765625 2.09765625 C-1.50765625 1.76765625 -2.16765625 1.43765625 -2.84765625 1.09765625 C-1.84765625 0.09765625 -1.84765625 0.09765625 0 0 Z " fill="#FDF9F8" transform="translate(54.84765625,97.90234375)"/>
<path d="M0 0 C0.66 0 1.32 0 2 0 C5.39941886 6.35543525 6.1513176 11.25167571 6.1875 18.4375 C6.20167969 19.71496094 6.21585937 20.99242188 6.23046875 22.30859375 C5.93901772 26.97675002 5.36827586 30.63172414 2 34 C1.84194868 31.23410196 1.83665443 29.35731844 3 26.8125 C5.77890168 18.99683902 3.55789654 11.55440946 1 4 C0.65280216 2.67020958 0.3146142 1.33787398 0 0 Z " fill="#E1A498" transform="translate(82,44)"/>
<path d="M0 0 C2.9375 1.0625 2.9375 1.0625 6 3 C6.875 6.6875 6.875 6.6875 7 10 C0.375 9.25 0.375 9.25 -3 7 C-2.01 6.67 -1.02 6.34 0 6 C0 4.68 0 3.36 0 2 C0 1.34 0 0.68 0 0 Z " fill="#F0D1CB" transform="translate(88,74)"/>
<path d="M0 0 C6.64150943 2.41509434 6.64150943 2.41509434 8.1875 4.9375 C7.91039285 7.98567865 6.26199051 9.08073532 4 11 C3.34 10.67 2.68 10.34 2 10 C2.33 9.01 2.66 8.02 3 7 C1.02 6.01 -0.96 5.02 -3 4 C-2.01 2.68 -1.02 1.36 0 0 Z " fill="#F9EDEB" transform="translate(27,26)"/>
<path d="M0 0 C2.6296046 3.50613947 3.5748261 5.22318016 4.6875 9.25 C5.06455078 10.58804688 5.06455078 10.58804688 5.44921875 11.953125 C5.63097656 12.62859375 5.81273437 13.3040625 6 14 C5.34 14 4.68 14 4 14 C3.67 12.35 3.34 10.7 3 9 C1.35 9 -0.3 9 -2 9 C-2 10.98 -2 12.96 -2 15 C-2.99 14.34 -3.98 13.68 -5 13 C-3.35 8.71 -1.7 4.42 0 0 Z " fill="#8A8A8A" transform="translate(386,67)"/>
<path d="M0 0 C2.47543247 3.30057663 3.76116089 5.51200786 5.1875 9.25 C5.53167969 10.14203125 5.87585938 11.0340625 6.23046875 11.953125 C6.48441406 12.62859375 6.73835937 13.3040625 7 14 C6.01 14 5.02 14 4 14 C3.67 12.35 3.34 10.7 3 9 C1.35 9 -0.3 9 -2 9 C-2.33 10.65 -2.66 12.3 -3 14 C-3.66 13.67 -4.32 13.34 -5 13 C-3.35 8.71 -1.7 4.42 0 0 Z " fill="#898888" transform="translate(207,44)"/>
<path d="M0 0 C0.66 0 1.32 0 2 0 C3.65 4.29 5.3 8.58 7 13 C6.01 13 5.02 13 4 13 C3.67 11.68 3.34 10.36 3 9 C1.35 8.67 -0.3 8.34 -2 8 C-2.33 9.65 -2.66 11.3 -3 13 C-3.66 12.67 -4.32 12.34 -5 12 C-3.35 8.04 -1.7 4.08 0 0 Z " fill="#8B8B8B" transform="translate(166,45)"/>
<path d="M0 0 C6 2 6 2 8.78515625 3.0546875 C17.27948038 5.552411 26.59034402 4.3199051 35 2 C33.71140057 4.57719886 32.64290388 4.93486668 30 6 C26.75999257 6.41140049 23.51355447 6.32439342 20.25 6.3125 C18.94675781 6.33666992 18.94675781 6.33666992 17.6171875 6.36132812 C11.73736564 6.36574241 7.32529106 5.54921444 2 3 C1.34 2.01 0.68 1.02 0 0 Z " fill="#E2A79B" transform="translate(34,91)"/>
<path d="M0 0 C0.33 0.66 0.66 1.32 1 2 C0.04225569 4.69080544 -0.95762961 7.34268956 -2 10 C-4.45957367 16.83214908 -4.62104642 23.80985436 -5 31 C-5.33 31 -5.66 31 -6 31 C-6.08184423 28.02026385 -6.14089764 25.04283168 -6.1875 22.0625 C-6.21263672 21.23169922 -6.23777344 20.40089844 -6.26367188 19.54492188 C-6.33425885 13.49797101 -5.25464398 8.60483651 -3 3 C-2.34 3 -1.68 3 -1 3 C-0.67 2.01 -0.34 1.02 0 0 Z " fill="#E2A69B" transform="translate(12,39)"/>
<path d="M0 0 C2.6875 0.875 2.6875 0.875 5 2 C5 2.99 5 3.98 5 5 C4.34 5 3.68 5 3 5 C3 7.31 3 9.62 3 12 C0.03 11.505 0.03 11.505 -3 11 C-2.01 10.34 -1.02 9.68 0 9 C0 7.68 0 6.36 0 5 C-0.99 5.99 -1.98 6.98 -3 8 C-3.1875 5.125 -3.1875 5.125 -3 2 C-2.01 1.34 -1.02 0.68 0 0 Z " fill="#F3DBD6" transform="translate(36,33)"/>
<path d="M0 0 C2.80561393 1.40280696 3.00680507 3.0509005 4.125 5.9375 C4.47820312 6.83339844 4.83140625 7.72929688 5.1953125 8.65234375 C6 11 6 11 6 13 C5.34 13 4.68 13 4 13 C3.67 11.35 3.34 9.7 3 8 C1.35 8 -0.3 8 -2 8 C-2.33 9.65 -2.66 11.3 -3 13 C-3.66 12.67 -4.32 12.34 -5 12 C-3.35 8.04 -1.7 4.08 0 0 Z " fill="#A6A6A6" transform="translate(238,68)"/>
<path d="M0 0 C0.99 0.33 1.98 0.66 3 1 C2.67 2.32 2.34 3.64 2 5 C1.01 4.01 0.02 3.02 -1 2 C-1.33 3.65 -1.66 5.3 -2 7 C-2.99 7.33 -3.98 7.66 -5 8 C-5.33 6.35 -5.66 4.7 -6 3 C-7.32 3.33 -8.64 3.66 -10 4 C-9.67 3.01 -9.34 2.02 -9 1 C-6.01002175 -0.49498913 -3.29957225 -0.11577446 0 0 Z " fill="#FDF9F8" transform="translate(71,46)"/>
<path d="M0 0 C2.26274865 2.26274865 2.92661942 4.02857095 4.0625 7 C5.41920836 10.54955475 5.41920836 10.54955475 7 14 C6.01 14 5.02 14 4 14 C3.67 12.35 3.34 10.7 3 9 C1.02 9.33 -0.96 9.66 -3 10 C-2.69201674 8.51988629 -2.378482 7.04092675 -2.0625 5.5625 C-1.88847656 4.73878906 -1.71445313 3.91507813 -1.53515625 3.06640625 C-1 1 -1 1 0 0 Z " fill="#8F8E8E" transform="translate(121,44)"/>
<path d="M0 0 C0.66 0.33 1.32 0.66 2 1 C2.3540919 7.51791392 2.03901852 12.17521449 -1 18 C-1.33 17.34 -1.66 16.68 -2 16 C-2.66 15.67 -3.32 15.34 -4 15 C-3.01 15 -2.02 15 -1 15 C-1 14.01 -1 13.02 -1 12 C-2.32 12.33 -3.64 12.66 -5 13 C-4.67 11.68 -4.34 10.36 -4 9 C-2.68 9.66 -1.36 10.32 0 11 C-0.7763932 7.9254644 -0.7763932 7.9254644 -3 6 C-2.01 6 -1.02 6 0 6 C0 4.02 0 2.04 0 0 Z " fill="#FAF1EF" transform="translate(85,57)"/>
<path d="M0 0 C2.29013653 3.4352048 2.17842973 4.985331 2 9 C0.52093108 9.02689216 -0.95827483 9.04634621 -2.4375 9.0625 C-3.67306641 9.07990234 -3.67306641 9.07990234 -4.93359375 9.09765625 C-7 9 -7 9 -8 8 C-8.04063832 6.33382885 -8.042721 4.66611905 -8 3 C-5.69 3.33 -3.38 3.66 -1 4 C-0.67 2.68 -0.34 1.36 0 0 Z " fill="#FEFCFC" transform="translate(96,49)"/>
<path d="M0 0 C3.63 0 7.26 0 11 0 C11.26785714 11.25 11.26785714 11.25 9 15 C8.92652344 13.96939453 8.92652344 13.96939453 8.8515625 12.91796875 C8.73941406 11.56638672 8.73941406 11.56638672 8.625 10.1875 C8.55539063 9.29417969 8.48578125 8.40085937 8.4140625 7.48046875 C8.13354964 4.75601501 8.13354964 4.75601501 6 2 C2.41642759 1.74984127 2.41642759 1.74984127 -1 2 C-0.67 1.34 -0.34 0.68 0 0 Z " fill="#E4ADA3" transform="translate(37,67)"/>
<path d="M0 0 C0 3 0 3 -1.8125 5.1875 C-4 7 -4 7 -7 7 C-7 7.66 -7 8.32 -7 9 C-8.57725347 9.70133599 -10.16211333 10.385583 -11.75 11.0625 C-12.63171875 11.44535156 -13.5134375 11.82820313 -14.421875 12.22265625 C-17.15256309 13.04600008 -18.36901347 12.9773992 -21 12 C-19.06305322 11.18618205 -17.12542289 10.37399084 -15.1875 9.5625 C-13.56908203 8.88380859 -13.56908203 8.88380859 -11.91796875 8.19140625 C-9.9704874 7.39624987 -7.99561057 6.66520352 -6 6 C-5.690625 5.360625 -5.38125 4.72125 -5.0625 4.0625 C-3.7657662 1.54531085 -2.5778263 1.03113052 0 0 Z " fill="#E3AA9F" transform="translate(86,95)"/>
<path d="M0 0 C4.74452555 3.28467153 4.74452555 3.28467153 5.9375 6.625 C5.958125 7.40875 5.97875 8.1925 6 9 C5.34 9.66 4.68 10.32 4 11 C4 10.34 4 9.68 4 9 C3.34 9 2.68 9 2 9 C1.34 7.68 0.68 6.36 0 5 C-0.33 5.99 -0.66 6.98 -1 8 C-2.32 7.67 -3.64 7.34 -5 7 C-5 6.34 -5 5.68 -5 5 C-4.01 5 -3.02 5 -2 5 C-1.34 3.35 -0.68 1.7 0 0 Z " fill="#E1A599" transform="translate(39,74)"/>
<path d="M0 0 C0.33 0.66 0.66 1.32 1 2 C0.0625 4.125 0.0625 4.125 -1 6 C-0.34 6 0.32 6 1 6 C1 6.66 1 7.32 1 8 C1.66 8.33 2.32 8.66 3 9 C0.69 9 -1.62 9 -4 9 C-4.33 12.3 -4.66 15.6 -5 19 C-5.33 19 -5.66 19 -6 19 C-6.49914707 12.26151455 -5.19940966 6.9901356 -2 1 C-1.34 0.67 -0.68 0.34 0 0 Z " fill="#E6B2A8" transform="translate(25,42)"/>
<path d="M0 0 C2.27214035 2.27214035 2.51464657 3.9580005 3.2890625 6.9921875 C4.37574737 10.06117665 6.19871233 12.56156667 8.07421875 15.203125 C8.53248047 16.09257813 8.53248047 16.09257813 9 17 C8.67 17.99 8.34 18.98 8 20 C7.34 18.68 6.68 17.36 6 16 C5.34 16 4.68 16 4 16 C-0.59225513 5.62642369 -0.59225513 5.62642369 0 0 Z " fill="#E6B2A9" transform="translate(7,71)"/>
<path d="M0 0 C1.98 0 3.96 0 6 0 C4.68 0.33 3.36 0.66 2 1 C2 2.65 2 4.3 2 6 C3.32 6 4.64 6 6 6 C5.67 6.66 5.34 7.32 5 8 C4.01 7.67 3.02 7.34 2 7 C2 8.98 2 10.96 2 13 C3.65 12.67 5.3 12.34 7 12 C7 12.66 7 13.32 7 14 C4.69 14 2.38 14 0 14 C0 9.38 0 4.76 0 0 Z " fill="#767575" transform="translate(230,44)"/>
<path d="M0 0 C2.3431213 0.25561323 4.67843403 0.59270772 7 1 C7.33 1.66 7.66 2.32 8 3 C6.25 5.0625 6.25 5.0625 4 7 C1.8125 6.9375 1.8125 6.9375 0 6 C-1 3 -1 3 0 0 Z " fill="#FCF7F6" transform="translate(61,31)"/>
<path d="M0 0 C2.29141286 -0.05384521 4.58318188 -0.09272087 6.875 -0.125 C8.78925781 -0.15980469 8.78925781 -0.15980469 10.7421875 -0.1953125 C14 0 14 0 16 2 C13.69 1.67 11.38 1.34 9 1 C9.33 2.65 9.66 4.3 10 6 C9.01 6 8.02 6 7 6 C7 7.32 7 8.64 7 10 C6.01 9.67 5.02 9.34 4 9 C4.66 6.69 5.32 4.38 6 2 C3.03 1.505 3.03 1.505 0 1 C0 0.67 0 0.34 0 0 Z " fill="#E0A297" transform="translate(47,28)"/>
<path d="M0 0 C2.31 0 4.62 0 7 0 C6.67 0.66 6.34 1.32 6 2 C5.01 1.67 4.02 1.34 3 1 C3 2.65 3 4.3 3 6 C4.32 6 5.64 6 7 6 C6.67 6.66 6.34 7.32 6 8 C5.01 7.67 4.02 7.34 3 7 C3 9.31 3 11.62 3 14 C2.34 14 1.68 14 1 14 C0.67 9.38 0.34 4.76 0 0 Z " fill="#747373" transform="translate(175,67)"/>
<path d="M0 0 C0 2.64 0 5.28 0 8 C-1.32 8 -2.64 8 -4 8 C-3.34 9.32 -2.68 10.64 -2 12 C-2.99 11.67 -3.98 11.34 -5 11 C-5 10.34 -5 9.68 -5 9 C-5.66 9 -6.32 9 -7 9 C-5.99432671 5.98298013 -3.90847918 0 0 0 Z " fill="#FDFBFA" transform="translate(31,39)"/>
<path d="M0 0 C1.98 0 3.96 0 6 0 C6 1.32 6 2.64 6 4 C1.71 4 -2.58 4 -7 4 C-6.01 3.01 -5.02 2.02 -4 1 C-1.8125 1.3125 -1.8125 1.3125 0 2 C0 1.34 0 0.68 0 0 Z " fill="#FEFDFC" transform="translate(68,84)"/>
<path d="M0 0 C0.66 0 1.32 0 2 0 C2 1.98 2 3.96 2 6 C1.01 6 0.02 6 -1 6 C-1.33 6.99 -1.66 7.98 -2 9 C-2.66 9 -3.32 9 -4 9 C-4 8.01 -4 7.02 -4 6 C-5.32 5.67 -6.64 5.34 -8 5 C-7.67 4.34 -7.34 3.68 -7 3 C-5.02 3.495 -5.02 3.495 -3 4 C-2.67 3.01 -2.34 2.02 -2 1 C-1.34 1.33 -0.68 1.66 0 2 C0 1.34 0 0.68 0 0 Z " fill="#D57D6D" transform="translate(43,56)"/>
<path d="M0 0 C0.625 2.375 0.625 2.375 1 5 C0.34 5.66 -0.32 6.32 -1 7 C-1.99 7 -2.98 7 -4 7 C-6.1875 4.5 -6.1875 4.5 -8 2 C-4.91190305 0.23537317 -3.76687864 0 0 0 Z " fill="#FDFBFA" transform="translate(46,31)"/>
<path d="M0 0 C2.475 0.495 2.475 0.495 5 1 C5 1.66 5 2.32 5 3 C5.66 3 6.32 3 7 3 C6.67 8.28 6.34 13.56 6 19 C5.67 19 5.34 19 5 19 C4.96132813 17.57107422 4.96132813 17.57107422 4.921875 16.11328125 C4.86515625 14.85902344 4.8084375 13.60476562 4.75 12.3125 C4.70359375 11.07113281 4.6571875 9.82976563 4.609375 8.55078125 C3.92862155 4.58408325 2.74661246 2.87295664 0 0 Z " fill="#EAC1B9" transform="translate(26,46)"/>
<path d="M0 0 C0.33 0 0.66 0 1 0 C1.33 4.29 1.66 8.58 2 13 C2.99 13 3.98 13 5 13 C5 13.99 5 14.98 5 16 C4.01 16.33 3.02 16.66 2 17 C1.67 17.66 1.34 18.32 1 19 C0.34 19 -0.32 19 -1 19 C-0.67 12.73 -0.34 6.46 0 0 Z " fill="#F1D5CF" transform="translate(79,56)"/>
<path d="M0 0 C0.33 0.66 0.66 1.32 1 2 C2.65 2 4.3 2 6 2 C5.67 3.98 5.34 5.96 5 8 C4.67 7.01 4.34 6.02 4 5 C3.54625 5.495 3.0925 5.99 2.625 6.5 C1 8 1 8 -1 8 C-1.33 6.02 -1.66 4.04 -2 2 C-1.34 2 -0.68 2 0 2 C0 1.34 0 0.68 0 0 Z " fill="#F4DEDA" transform="translate(23,49)"/>
<path d="M0 0 C1.32 1.32 2.64 2.64 4 4 C3.67 4.99 3.34 5.98 3 7 C2.34 7 1.68 7 1 7 C0.67 11.62 0.34 16.24 0 21 C-0.33 21 -0.66 21 -1 21 C-1.05397335 18.5622037 -1.09365616 16.12560315 -1.125 13.6875 C-1.14175781 12.99720703 -1.15851562 12.30691406 -1.17578125 11.59570312 C-1.21217794 7.82864604 -1.14378864 6.21568296 1 3 C0.34 2.67 -0.32 2.34 -1 2 C-0.67 1.34 -0.34 0.68 0 0 Z " fill="#F4DCD8" transform="translate(54,32)"/>
<path d="M0 0 C1.32 0 2.64 0 4 0 C2.66749209 3.5875213 1.169283 6.8364623 -1 10 C-1.66 10 -2.32 10 -3 10 C-3 7.03 -3 4.06 -3 1 C-2.67 1.66 -2.34 2.32 -2 3 C-1.01 3 -0.02 3 1 3 C0.67 2.01 0.34 1.02 0 0 Z " fill="#FDF9F8" transform="translate(79,76)"/>
<path d="M0 0 C1.32 0.66 2.64 1.32 4 2 C3.67 3.32 3.34 4.64 3 6 C3.99 6.33 4.98 6.66 6 7 C6 8.65 6 10.3 6 12 C5.01 12 4.02 12 3 12 C2.67 9.69 2.34 7.38 2 5 C1.34 5 0.68 5 0 5 C-0.33 5.66 -0.66 6.32 -1 7 C-0.67 4.69 -0.34 2.38 0 0 Z " fill="#D88879" transform="translate(54,72)"/>
<path d="M0 0 C3 1 3 1 4 3 C4.06996014 4.70702735 4.08440154 6.41668003 4.0625 8.125 C4.05347656 9.03507812 4.04445313 9.94515625 4.03515625 10.8828125 C4.02355469 11.58148438 4.01195313 12.28015625 4 13 C3.34 13 2.68 13 2 13 C2 13.66 2 14.32 2 15 C1.34 15 0.68 15 0 15 C-0.33 13.02 -0.66 11.04 -1 9 C0.32 9 1.64 9 3 9 C2.67 6.69 2.34 4.38 2 2 C1.34 2 0.68 2 0 2 C0 1.34 0 0.68 0 0 Z " fill="#EFCFC9" transform="translate(70,48)"/>
<path d="M0 0 C0.66 0 1.32 0 2 0 C2 0.66 2 1.32 2 2 C2.99 2.33 3.98 2.66 5 3 C3.68 3.33 2.36 3.66 1 4 C1 4.66 1 5.32 1 6 C0.01 6.33 -0.98 6.66 -2 7 C-2 6.01 -2 5.02 -2 4 C-2.66 4 -3.32 4 -4 4 C-4.33 5.65 -4.66 7.3 -5 9 C-5.66 8.67 -6.32 8.34 -7 8 C-6.34 6.35 -5.68 4.7 -5 3 C-5.66 3 -6.32 3 -7 3 C-6.67 2.34 -6.34 1.68 -6 1 C-3.525 1.99 -3.525 1.99 -1 3 C-1.33 2.67 -1.66 2.34 -2 2 C-1.34 1.34 -0.68 0.68 0 0 Z " fill="#C39F99" transform="translate(73,19)"/>
<path d="M0 0 C1.89492188 0.15275391 1.89492188 0.15275391 3.828125 0.30859375 C4.79234375 0.39238281 5.7565625 0.47617188 6.75 0.5625 C6.75 0.8925 6.75 1.2225 6.75 1.5625 C-2.16 2.5525 -2.16 2.5525 -11.25 3.5625 C-11.25 2.5725 -11.25 1.5825 -11.25 0.5625 C-7.43483536 -0.73812431 -3.97438237 -0.33119853 0 0 Z " fill="#ECC4BB" transform="translate(50.25,15.4375)"/>
<path d="M0 0 C1.98 0.66 3.96 1.32 6 2 C5.49855469 2.38800781 4.99710938 2.77601562 4.48046875 3.17578125 C2.75108118 4.92975791 2.75108118 4.92975791 2.92578125 7.48046875 C3.11720703 8.82044922 3.11720703 8.82044922 3.3125 10.1875 C3.43238281 11.08855469 3.55226563 11.98960938 3.67578125 12.91796875 C3.78277344 13.60503906 3.88976562 14.29210937 4 15 C0.91145855 12.0439429 0.06147783 10.28785336 -0.0546875 5.96484375 C-0.06170109 3.97649131 -0.03313481 1.98808871 0 0 Z " fill="#E6B4AA" transform="translate(19,64)"/>
<path d="M0 0 C3.82352106 1.5577308 6.29205593 3.91595258 9 7 C9 7.99 9 8.98 9 10 C4.71095765 8.4114658 2.67654474 5.56872632 0 2 C0 1.34 0 0.68 0 0 Z " fill="#E9BBB1" transform="translate(16,91)"/>
<path d="M0 0 C0.99 0 1.98 0 3 0 C2.67 1.32 2.34 2.64 2 4 C3.32 4.33 4.64 4.66 6 5 C6 5.99 6 6.98 6 8 C4.02 8 2.04 8 0 8 C0 5.36 0 2.72 0 0 Z " fill="#F4DFDA" transform="translate(33,57)"/>
<path d="M0 0 C0.99 0.33 1.98 0.66 3 1 C3.20086443 4.71599191 3.1519437 5.77208445 1 9 C0.67 7.68 0.34 6.36 0 5 C-0.66 5 -1.32 5 -2 5 C-2.33 4.01 -2.66 3.02 -3 2 C-2.01 1.34 -1.02 0.68 0 0 Z " fill="#D88677" transform="translate(71,74)"/>
<path d="M0 0 C2.74855776 2.37375443 3.6829917 4.66357897 5 8 C5.66 8.33 6.32 8.66 7 9 C7.66 7.68 8.32 6.36 9 5 C8.48967606 8.77639718 7.79233071 10.44722581 5 13 C4.15930585 11.39967863 3.32768495 9.79458829 2.5 8.1875 C1.80390625 6.84751953 1.80390625 6.84751953 1.09375 5.48046875 C0 3 0 3 0 0 Z " fill="#717070" transform="translate(144,45)"/>
<path d="M0 0 C1.32 0.66 2.64 1.32 4 2 C3.67 2.66 3.34 3.32 3 4 C2.34 3.67 1.68 3.34 1 3 C1.33 6.63 1.66 10.26 2 14 C1.34 14 0.68 14 0 14 C0 13.34 0 12.68 0 12 C-0.66 12 -1.32 12 -2 12 C-1.34 8.04 -0.68 4.08 0 0 Z " fill="#DD978A" transform="translate(74,35)"/>
<path d="M0 0 C1 3 1 3 0.0625 5.1875 C-0.4634375 6.0846875 -0.4634375 6.0846875 -1 7 C-1.99 7 -2.98 7 -4 7 C-4 8.98 -4 10.96 -4 13 C-4.66 13 -5.32 13 -6 13 C-5.67 10.36 -5.34 7.72 -5 5 C-4.34 5 -3.68 5 -3 5 C-2.5359375 4.0409375 -2.5359375 4.0409375 -2.0625 3.0625 C-1 1 -1 1 0 0 Z " fill="#DC9385" transform="translate(37,36)"/>
<path d="M0 0 C3.3 0 6.6 0 10 0 C9.34 0.66 8.68 1.32 8 2 C7.01 2 6.02 2 5 2 C5 2.99 5 3.98 5 5 C4.01 5.33 3.02 5.66 2 6 C0 3 0 3 0 0 Z " fill="#F2D8D2" transform="translate(56,29)"/>
<path d="M0 0 C0.33 0 0.66 0 1 0 C1.33 4.62 1.66 9.24 2 14 C1.67 13.34 1.34 12.68 1 12 C-0.98 12.66 -2.96 13.32 -5 14 C-4.67 12.68 -4.34 11.36 -4 10 C-2.68 10 -1.36 10 0 10 C0 6.7 0 3.4 0 0 Z " fill="#F8EBE8" transform="translate(26,57)"/>
<path d="M0 0 C0.928125 1.175625 0.928125 1.175625 1.875 2.375 C3.89858661 4.96837647 3.89858661 4.96837647 6 7 C6.1875 9.5625 6.1875 9.5625 6 12 C5 13 5 13 1.9375 13.0625 C0.968125 13.041875 -0.00125 13.02125 -1 13 C-0.67 12.34 -0.34 11.68 0 11 C1.32 11 2.64 11 4 11 C4 10.01 4 9.02 4 8 C3.01 7.319375 3.01 7.319375 2 6.625 C1.34 6.08875 0.68 5.5525 0 5 C-0.25 2.3125 -0.25 2.3125 0 0 Z " fill="#6C6B6B" transform="translate(263,45)"/>
<path d="M0 0 C2.475 0.495 2.475 0.495 5 1 C4.67 2.65 4.34 4.3 4 6 C2.68 6 1.36 6 0 6 C0 4.02 0 2.04 0 0 Z " fill="#EBEBEB" transform="translate(348,45)"/>
<path d="M0 0 C2.97 0.495 2.97 0.495 6 1 C6.33 1.99 6.66 2.98 7 4 C5.02 4.66 3.04 5.32 1 6 C0 5 0 5 -0.0625 2.4375 C-0.041875 1.633125 -0.02125 0.82875 0 0 Z " fill="#E8BAB0" transform="translate(33,81)"/>
<path d="M0 0 C1.98 0 3.96 0 6 0 C6 1.65 6 3.3 6 5 C4.02 5 2.04 5 0 5 C0 3.35 0 1.7 0 0 Z " fill="#EDC7BF" transform="translate(51,80)"/>
<path d="M0 0 C1.65 0 3.3 0 5 0 C4.67 1.98 4.34 3.96 4 6 C2.68 6 1.36 6 0 6 C0 4.02 0 2.04 0 0 Z " fill="#ECC4BC" transform="translate(81,54)"/>
<path d="M0 0 C0.625 1.8125 0.625 1.8125 1 4 C0.01 5.485 0.01 5.485 -1 7 C-2.33333333 7 -3.66666667 7 -5 7 C-5.66 6.34 -6.32 5.68 -7 5 C-6.34 5 -5.68 5 -5 5 C-5 4.34 -5 3.68 -5 3 C-2.5 1.375 -2.5 1.375 0 0 Z " fill="#E5B0A6" transform="translate(32,94)"/>
<path d="M0 0 C1.98 0.495 1.98 0.495 4 1 C4 2.98 4 4.96 4 7 C2.68 6.67 1.36 6.34 0 6 C-1.125 2.25 -1.125 2.25 0 0 Z " fill="#FDFAFA" transform="translate(42,47)"/>
<path d="M0 0 C0.33 0 0.66 0 1 0 C1 3.3 1 6.6 1 10 C0.01 9.67 -0.98 9.34 -2 9 C-1.67 7.35 -1.34 5.7 -1 4 C-1.99 3.67 -2.98 3.34 -4 3 C-4 2.34 -4 1.68 -4 1 C-2.68 1.33 -1.36 1.66 0 2 C0 1.34 0 0.68 0 0 Z " fill="#DB9183" transform="translate(47,39)"/>
<path d="M0 0 C0.96398647 2.8919594 1 4.9994375 1 8 C0.01 8.33 -0.98 8.66 -2 9 C-2.103125 8.360625 -2.20625 7.72125 -2.3125 7.0625 C-2.539375 6.381875 -2.76625 5.70125 -3 5 C-3.99 4.67 -4.98 4.34 -6 4 C-6 3.01 -6 2.02 -6 1 C-5.38125 1.20625 -4.7625 1.4125 -4.125 1.625 C-3.073125 1.810625 -3.073125 1.810625 -2 2 C-1.34 1.34 -0.68 0.68 0 0 Z " fill="#F3DBD6" transform="translate(52,30)"/>
<path d="M0 0 C0.33 0.66 0.66 1.32 1 2 C-0.98 4.31 -2.96 6.62 -5 9 C-5.66 8.67 -6.32 8.34 -7 8 C-6.67 6.68 -6.34 5.36 -6 4 C-6 4.66 -6 5.32 -6 6 C-3.83333333 5.16666667 -3.83333333 5.16666667 -3 3 C-2 1 -2 1 0 0 Z " fill="#E6B2A8" transform="translate(82,80)"/>
<path d="M0 0 C0.99 0 1.98 0 3 0 C3 2.64 3 5.28 3 8 C1.68 7.01 0.36 6.02 -1 5 C-0.67 3.35 -0.34 1.7 0 0 Z " fill="#E6B4AB" transform="translate(58,73)"/>
<path d="M0 0 C2.80561393 1.40280696 3.00680507 3.0509005 4.125 5.9375 C4.47820312 6.83339844 4.83140625 7.72929688 5.1953125 8.65234375 C6 11 6 11 6 13 C5.34 13 4.68 13 4 13 C3.35242375 11.56328432 2.70700547 10.12559584 2.0625 8.6875 C1.70285156 7.88699219 1.34320313 7.08648437 0.97265625 6.26171875 C0 4 0 4 -1 1 C-0.67 0.67 -0.34 0.34 0 0 Z " fill="#646363" transform="translate(238,68)"/>
<path d="M0 0 C0.0825 0.61875 0.165 1.2375 0.25 1.875 C0.80607909 4.17381462 0.80607909 4.17381462 3 5.1875 C3.66 5.455625 4.32 5.72375 5 6 C6 7 6 7 6.0625 9.5625 C6.041875 10.366875 6.02125 11.17125 6 12 C5.01 12 4.02 12 3 12 C3 10.68 3 9.36 3 8 C2.505 7.525625 2.01 7.05125 1.5 6.5625 C0 5 0 5 -0.1875 2.3125 C-0.125625 1.549375 -0.06375 0.78625 0 0 Z " fill="#696868" transform="translate(202,68)"/>
<path d="M0 0 C0.66 0 1.32 0 2 0 C2.66 1.98 3.32 3.96 4 6 C2.35 6.33 0.7 6.66 -1 7 C-1.125 2.25 -1.125 2.25 0 0 Z " fill="#E2A79C" transform="translate(67,97)"/>
<path d="M0 0 C1.32 0.33 2.64 0.66 4 1 C4 2.65 4 4.3 4 6 C2.68 6 1.36 6 0 6 C0 4.02 0 2.04 0 0 Z " fill="#FCFCFC" transform="translate(291,74)"/>
<path d="M0 0 C2.31 0 4.62 0 7 0 C7 1.32 7 2.64 7 4 C5.35 4 3.7 4 2 4 C1.34 2.68 0.68 1.36 0 0 Z " fill="#E0A094" transform="translate(90,57)"/>
<path d="M0 0 C0.99 0.33 1.98 0.66 3 1 C3 2.32 3 3.64 3 5 C2.01 5.33 1.02 5.66 0 6 C-0.66 5.67 -1.32 5.34 -2 5 C-2 3.68 -2 2.36 -2 1 C-1.34 0.67 -0.68 0.34 0 0 Z " fill="#FDF9F9" transform="translate(91,47)"/>
<path d="M0 0 C1.32 0.33 2.64 0.66 4 1 C4 2.65 4 4.3 4 6 C2.68 6 1.36 6 0 6 C0 4.02 0 2.04 0 0 Z " fill="#FCFCFC" transform="translate(244,45)"/>
<path d="M0 0 C-0.33 1.98 -0.66 3.96 -1 6 C-2.9375 5.625 -2.9375 5.625 -5 5 C-5.33 4.34 -5.66 3.68 -6 3 C-5.34 3 -4.68 3 -4 3 C-4 2.34 -4 1.68 -4 1 C-2 0 -2 0 0 0 Z " fill="#F5F5F5" transform="translate(78,22)"/>
<path d="M0 0 C1.65 0 3.3 0 5 0 C4.34 1.65 3.68 3.3 3 5 C1.68 5 0.36 5 -1 5 C-0.67 3.35 -0.34 1.7 0 0 Z " fill="#FBF3F2" transform="translate(40,99)"/>
<path d="M0 0 C5.28 0.33 10.56 0.66 16 1 C16 1.33 16 1.66 16 2 C11.05 2.33 6.1 2.66 1 3 C0.67 2.01 0.34 1.02 0 0 Z " fill="#DC9487" transform="translate(30,88)"/>
<path d="M0 0 C0.66 0.33 1.32 0.66 2 1 C1.690625 1.598125 1.38125 2.19625 1.0625 2.8125 C-0.10209704 5.08956772 -0.10209704 5.08956772 -1 8 C-2.32 7.67 -3.64 7.34 -5 7 C-5 6.34 -5 5.68 -5 5 C-4.01 5 -3.02 5 -2 5 C-1.34 3.35 -0.68 1.7 0 0 Z " fill="#DC9284" transform="translate(39,74)"/>
<path d="M0 0 C3 3 3 3 3.07421875 5.04296875 C2.71614583 7.02864583 2.35807292 9.01432292 2 11 C1.34 11 0.68 11 0 11 C0 7.37 0 3.74 0 0 Z " fill="#F9ECE9" transform="translate(61,72)"/>
<path d="M0 0 C1.32 0.33 2.64 0.66 4 1 C3.67 2.65 3.34 4.3 3 6 C2.01 6 1.02 6 0 6 C0 4.02 0 2.04 0 0 Z " fill="#F9F9F9" transform="translate(190,68)"/>
<path d="M0 0 C0.66 0 1.32 0 2 0 C2 1.65 2 3.3 2 5 C0.68 4.67 -0.64 4.34 -2 4 C-1.67 5.32 -1.34 6.64 -1 8 C-1.99 8.495 -1.99 8.495 -3 9 C-3.75 7.3125 -3.75 7.3125 -4 5 C-2.1875 2.25 -2.1875 2.25 0 0 Z " fill="#FBF4F3" transform="translate(83,50)"/>
<path d="M0 0 C0.99 0.33 1.98 0.66 3 1 C3.33 2.98 3.66 4.96 4 7 C4.66 7 5.32 7 6 7 C6 7.66 6 8.32 6 9 C3.69 9 1.38 9 -1 9 C0 7 0 7 1 6 C1.36162029 4.67405895 1.69728039 3.34061543 2 2 C1.01 1.67 0.02 1.34 -1 1 C-0.67 0.67 -0.34 0.34 0 0 Z " fill="#E0A195" transform="translate(65,37)"/>
<path d="M0 0 C0.33 0.66 0.66 1.32 1 2 C0.22265625 4.1640625 0.22265625 4.1640625 -0.9375 6.625 C-1.31777344 7.44226562 -1.69804687 8.25953125 -2.08984375 9.1015625 C-2.39019531 9.72804688 -2.69054687 10.35453125 -3 11 C-3.33 11 -3.66 11 -4 11 C-4.125 5.25 -4.125 5.25 -3 3 C-2.34 3 -1.68 3 -1 3 C-0.67 2.01 -0.34 1.02 0 0 Z " fill="#E5B1A8" transform="translate(12,39)"/>
<path d="M0 0 C0.33 0.66 0.66 1.32 1 2 C1.99 2.33 2.98 2.66 4 3 C3.01 3.495 3.01 3.495 2 4 C2.33 5.65 2.66 7.3 3 9 C2.34 8.67 1.68 8.34 1 8 C1 7.34 1 6.68 1 6 C0.34 6 -0.32 6 -1 6 C-0.67 4.02 -0.34 2.04 0 0 Z " fill="#ECC4BC" transform="translate(79,35)"/>
<path d="M0 0 C6.52307692 0.61538462 6.52307692 0.61538462 8.9375 2.5625 C9.288125 3.036875 9.63875 3.51125 10 4 C9.67 4.99 9.34 5.98 9 7 C7.4972763 6.02501855 5.99788037 5.04490611 4.5 4.0625 C3.6646875 3.51722656 2.829375 2.97195312 1.96875 2.41015625 C1.3190625 1.94480469 0.669375 1.47945312 0 1 C0 0.67 0 0.34 0 0 Z " fill="#E6B3AA" transform="translate(64,30)"/>
<path d="M0 0 C1.98 0.99 3.96 1.98 6 3 C6 3.66 6 4.32 6 5 C4.02 5.33 2.04 5.66 0 6 C0 4 0 2 0 0 Z " fill="#E2A598" transform="translate(88,74)"/>
<path d="M0 0 C1.32 0 2.64 0 4 0 C4.33 0.99 4.66 1.98 5 3 C3.02 3.99 1.04 4.98 -1 6 C-1.042721 4.33388095 -1.04063832 2.66617115 -1 1 C-0.67 0.67 -0.34 0.34 0 0 Z " fill="#DC9588" transform="translate(37,49)"/>
<path d="M0 0 C1.65 0.99 3.3 1.98 5 3 C3.35 4.32 1.7 5.64 0 7 C-0.99 6.34 -1.98 5.68 -3 5 C-2.34 4.34 -1.68 3.68 -1 3 C-0.67 2.01 -0.34 1.02 0 0 Z " fill="#EABFB7" transform="translate(62,41)"/>
<path d="M0 0 C0 3 0 3 -1.875 5.1875 C-4 7 -4 7 -6 7 C-5.8125 5.1875 -5.8125 5.1875 -5 3 C-2.4375 1.25 -2.4375 1.25 0 0 Z " fill="#E7B7AE" transform="translate(86,95)"/>
<path d="M0 0 C0.99 0 1.98 0 3 0 C3 0.99 3 1.98 3 3 C3.66 3 4.32 3 5 3 C4.67 3.99 4.34 4.98 4 6 C2.68 5.67 1.36 5.34 0 5 C-0.5625 3.0625 -0.5625 3.0625 -1 1 C-0.67 0.67 -0.34 0.34 0 0 Z " fill="#F7E8E5" transform="translate(30,98)"/>
<path d="M0 0 C2 2 2 2 2.125 4.625 C2.08375 5.40875 2.0425 6.1925 2 7 C1.01 7.33 0.02 7.66 -1 8 C-1.04241723 5.66705225 -1.04092937 3.33297433 -1 1 C-0.67 0.67 -0.34 0.34 0 0 Z " fill="#FDF9F8" transform="translate(34,48)"/>
<path d="M0 0 C2 3 2 3 1.625 5.6875 C1.41875 6.450625 1.2125 7.21375 1 8 C0.01 6.68 -0.98 5.36 -2 4 C-3.32 4.99 -4.64 5.98 -6 7 C-5.25 5.0625 -5.25 5.0625 -4 3 C-1.875 2.25 -1.875 2.25 0 2 C0 1.34 0 0.68 0 0 Z " fill="#DE998C" transform="translate(86,30)"/>
<path d="M0 0 C0.33 0 0.66 0 1 0 C1 2.97 1 5.94 1 9 C-1 7.625 -1 7.625 -3 6 C-3 5.34 -3 4.68 -3 4 C-2.34 3.67 -1.68 3.34 -1 3 C-0.67 2.01 -0.34 1.02 0 0 Z " fill="#FEFEFD" transform="translate(29,76)"/>
<path d="M0 0 C2.97 0 5.94 0 9 0 C8.67 1.32 8.34 2.64 8 4 C7.1646875 3.505 7.1646875 3.505 6.3125 3 C3.69715478 1.8690399 1.8193354 1.84337026 -1 2 C-0.67 1.34 -0.34 0.68 0 0 Z " fill="#EDC8C0" transform="translate(37,67)"/>
<path d="M0 0 C0.99 1.32 1.98 2.64 3 4 C2.67 4.66 2.34 5.32 2 6 C1.01 6 0.02 6 -1 6 C-1.33 4.35 -1.66 2.7 -2 1 C-1.34 0.67 -0.68 0.34 0 0 Z " fill="#E9BCB4" transform="translate(80,46)"/>
<path d="M0 0 C0.99 0 1.98 0 3 0 C3.33 1.65 3.66 3.3 4 5 C2.68 5 1.36 5 0 5 C0 3.35 0 1.7 0 0 Z " fill="#F1D4CE" transform="translate(58,100)"/>
<path d="M0 0 C2.3773161 2.3773161 2.67028521 3.70285207 3 7 C2.34 7.66 1.68 8.32 1 9 C0.34 8.67 -0.32 8.34 -1 8 C-0.814375 7.38125 -0.62875 6.7625 -0.4375 6.125 C0.23686176 3.95839822 0.23686176 3.95839822 -1 2 C-0.67 1.34 -0.34 0.68 0 0 Z " fill="#F0D2CC" transform="translate(82,73)"/>
<path d="M0 0 C1.9375 0.375 1.9375 0.375 4 1 C5.4783226 3.95664519 5.06032783 6.74229737 5 10 C4.01 10.495 4.01 10.495 3 11 C3.0928125 9.39125 3.0928125 9.39125 3.1875 7.75 C2.99456691 3.89133813 2.60334924 2.71182212 0 0 Z " fill="#5E5D5D" transform="translate(263,68)"/>
<path d="M0 0 C0.66 0 1.32 0 2 0 C1.38461538 6.52307692 1.38461538 6.52307692 -0.5625 8.9375 C-1.036875 9.288125 -1.51125 9.63875 -2 10 C-2.22036864 6.14354879 -1.60355101 3.50776784 0 0 Z " fill="#E5AEA3" transform="translate(86,68)"/>
<path d="M0 0 C0 2.31 0 4.62 0 7 C-0.66 7 -1.32 7 -2 7 C-2 6.34 -2 5.68 -2 5 C-2.66 5 -3.32 5 -4 5 C-3.625 3.0625 -3.625 3.0625 -3 1 C-1 0 -1 0 0 0 Z " fill="#FAF0EF" transform="translate(18,59)"/>
<path d="M0 0 C2.475 0.495 2.475 0.495 5 1 C4.0022242 3.99332739 3.2477975 4.94766315 1 7 C1.020625 6.21625 1.04125 5.4325 1.0625 4.625 C1.18684063 2.01885039 1.18684063 2.01885039 0 0 Z " fill="#DF9C90" transform="translate(61,54)"/>
<path d="M0 0 C0.66 0.33 1.32 0.66 2 1 C2 2.32 2 3.64 2 5 C1.01 5.33 0.02 5.66 -1 6 C-1.66 5.01 -2.32 4.02 -3 3 C-2.01 2.01 -1.02 1.02 0 0 Z " fill="#FEFCFB" transform="translate(84,33)"/>
<path d="M0 0 C2.31 0.66 4.62 1.32 7 2 C5 4 5 4 3 5 C2.67 5.66 2.34 6.32 2 7 C0.5393715 4.35261084 0 3.10551666 0 0 Z " fill="#DC9486" transform="translate(24,30)"/>
<path d="M0 0 C0.99 0.33 1.98 0.66 3 1 C3.33 1.99 3.66 2.98 4 4 C6.00016466 5.20882096 6.00016466 5.20882096 8 6 C6.68 6.33 5.36 6.66 4 7 C0 2.25 0 2.25 0 0 Z " fill="#E6B1A7" transform="translate(25,82)"/>
<path d="M0 0 C0.33 0.66 0.66 1.32 1 2 C0.67 2.66 0.34 3.32 0 4 C0.99 4.33 1.98 4.66 3 5 C0.69 5.33 -1.62 5.66 -4 6 C-2.68 4.02 -1.36 2.04 0 0 Z " fill="#DC9487" transform="translate(19,78)"/>
<path d="M0 0 C1.32 0.33 2.64 0.66 4 1 C4.33 2.32 4.66 3.64 5 5 C3.35 5 1.7 5 0 5 C0 3.35 0 1.7 0 0 Z " fill="#FCF7F5" transform="translate(67,78)"/>
<path d="M0 0 C0.66 0 1.32 0 2 0 C2 1.32 2 2.64 2 4 C2.66 4 3.32 4 4 4 C4 3.34 4 2.68 4 2 C4.66 2.33 5.32 2.66 6 3 C6 3.66 6 4.32 6 5 C4.35 5.33 2.7 5.66 1 6 C0 1.125 0 1.125 0 0 Z " fill="#E6B3A9" transform="translate(63,73)"/>
<path d="M0 0 C1.32 0 2.64 0 4 0 C3.67 1.98 3.34 3.96 3 6 C2.34 6 1.68 6 1 6 C0.67 4.02 0.34 2.04 0 0 Z " fill="#EDC8C0" transform="translate(69,57)"/>
<path d="M0 0 C0.66 0 1.32 0 2 0 C2.33 2.31 2.66 4.62 3 7 C1.68 6.67 0.36 6.34 -1 6 C-0.67 5.01 -0.34 4.02 0 3 C0 2.01 0 1.02 0 0 Z " fill="#D98B7C" transform="translate(70,50)"/>
<path d="M0 0 C0.33 0 0.66 0 1 0 C1 2.31 1 4.62 1 7 C-1.97 6.505 -1.97 6.505 -5 6 C-4.01 5.34 -3.02 4.68 -2 4 C-0.80767387 1.94996045 -0.80767387 1.94996045 0 0 Z " fill="#ECC4BC" transform="translate(38,38)"/>
</svg>
